ISO-10303-21;
HEADER;
FILE_DESCRIPTION (( 'STEP AP203' ),
    '1' );
FILE_NAME ('Halterung_1_Cycloidal.STEP',
    '2025-03-27T18:04:35',
    ( '' ),
    ( '' ),
    'SwSTEP 2.0',
    'SolidWorks 2023',
    '' );
FILE_SCHEMA (( 'CONFIG_CONTROL_DESIGN' ));
ENDSEC;

DATA;
#1 = LINE ( 'NONE', #438, #1071 ) ;
#2 = CIRCLE ( 'NONE', #949, 0.01099999999999999416 ) ;
#3 = VERTEX_POINT ( 'NONE', #1029 ) ;
#4 = DIRECTION ( 'NONE',  ( 1.000000000000000000, 0.000000000000000000, 0.000000000000000000 ) ) ;
#5 = CIRCLE ( 'NONE', #981, 0.003000000000000000062 ) ;
#6 = EDGE_LOOP ( 'NONE', ( #56, #690 ) ) ;
#7 = EDGE_CURVE ( 'NONE', #113, #748, #14, .T. ) ;
#8 = DIRECTION ( 'NONE',  ( 1.000000000000000000, 0.000000000000000000, 0.000000000000000000 ) ) ;
#9 = DIRECTION ( 'NONE',  ( 0.000000000000000000, 0.000000000000000000, -1.000000000000000000 ) ) ;
#10 = VERTEX_POINT ( 'NONE', #834 ) ;
#11 = DIRECTION ( 'NONE',  ( -0.000000000000000000, -0.000000000000000000, -1.000000000000000000 ) ) ;
#12 = CIRCLE ( 'NONE', #714, 0.004500000000000000527 ) ;
#13 = EDGE_CURVE ( 'NONE', #86, #650, #295, .T. ) ;
#14 = CIRCLE ( 'NONE', #603, 0.002749999999999998973 ) ;
#15 = ORIENTED_EDGE ( 'NONE', *, *, #617, .T. ) ;
#16 = VERTEX_POINT ( 'NONE', #594 ) ;
#17 = CONICAL_SURFACE ( 'NONE', #976, 0.01099999999999999589, 0.7853981633974500554 ) ;
#18 = PLANE ( 'NONE',  #563 ) ;
#19 = EDGE_CURVE ( 'NONE', #545, #627, #26, .T. ) ;
#20 = ADVANCED_FACE ( 'NONE', ( #155 ), #959, .F. ) ;
#21 = VERTEX_POINT ( 'NONE', #148 ) ;
#22 = CARTESIAN_POINT ( 'NONE',  ( 0.03129045599745482187, 0.09639999999999999958, 0.002000000000000000042 ) ) ;
#23 = ORIENTED_EDGE ( 'NONE', *, *, #326, .F. ) ;
#24 = DIRECTION ( 'NONE',  ( -0.000000000000000000, -0.000000000000000000, -1.000000000000000000 ) ) ;
#25 = CARTESIAN_POINT ( 'NONE',  ( 0.03250000000000000111, 0.005000000000000000104, 0.01969999999999999876 ) ) ;
#26 = CIRCLE ( 'NONE', #716, 0.002749999999999998973 ) ;
#27 = ORIENTED_EDGE ( 'NONE', *, *, #1100, .F. ) ;
#28 = EDGE_CURVE ( 'NONE', #549, #903, #181, .T. ) ;
#29 = LINE ( 'NONE', #635, #285 ) ;
#30 = LINE ( 'NONE', #380, #1133 ) ;
#31 = ORIENTED_EDGE ( 'NONE', *, *, #255, .F. ) ;
#32 = CARTESIAN_POINT ( 'NONE',  ( 0.03125000000000000000, 0.03150000000000000022, 0.006000000000000000125 ) ) ;
#33 = VECTOR ( 'NONE', #1046, 1.000000000000000000 ) ;
#34 = VERTEX_POINT ( 'NONE', #782 ) ;
#35 = DIRECTION ( 'NONE',  ( -0.000000000000000000, -0.000000000000000000, -1.000000000000000000 ) ) ;
#36 = CARTESIAN_POINT ( 'NONE',  ( 0.02949999999999999845, 0.005000000000000000104, 0.01299999999999999940 ) ) ;
#37 = CARTESIAN_POINT ( 'NONE',  ( 0.01200000000000000025, 0.005000000000000000971, 0.01299999999999999940 ) ) ;
#38 = EDGE_CURVE ( 'NONE', #398, #607, #870, .T. ) ;
#39 = VECTOR ( 'NONE', #957, 1.000000000000000000 ) ;
#40 = ORIENTED_EDGE ( 'NONE', *, *, #873, .T. ) ;
#41 = DIRECTION ( 'NONE',  ( -0.000000000000000000, -0.000000000000000000, -1.000000000000000000 ) ) ;
#42 = EDGE_LOOP ( 'NONE', ( #194, #523 ) ) ;
#43 = CARTESIAN_POINT ( 'NONE',  ( 0.03550000000000000377, 0.005000000000000000104, 0.01969999999999999876 ) ) ;
#44 = CYLINDRICAL_SURFACE ( 'NONE', #1149, 0.003000000000000000062 ) ;
#45 = DIRECTION ( 'NONE',  ( 0.000000000000000000, 0.000000000000000000, -1.000000000000000000 ) ) ;
#46 = PRODUCT ( 'Halterung_1_Cycloidal', 'Halterung_1_Cycloidal', '', ( #950 ) ) ;
#47 = ORIENTED_EDGE ( 'NONE', *, *, #454, .F. ) ;
#48 = EDGE_CURVE ( 'NONE', #34, #306, #772, .T. ) ;
#49 = EDGE_LOOP ( 'NONE', ( #732, #367, #906, #350 ) ) ;
#50 = CARTESIAN_POINT ( 'NONE',  ( 0.004499999999999999660, 0.005000000000000000104, 0.02099999999999999090 ) ) ;
#51 = CARTESIAN_POINT ( 'NONE',  ( 0.03250000000000000111, 0.005000000000000000104, 0.01969999999999999876 ) ) ;
#52 = ORIENTED_EDGE ( 'NONE', *, *, #108, .T. ) ;
#53 = CIRCLE ( 'NONE', #122, 0.01099999999999999589 ) ;
#54 = ADVANCED_FACE ( 'NONE', ( #865 ), #246, .F. ) ;
#55 = EDGE_CURVE ( 'NONE', #252, #34, #987, .T. ) ;
#56 = ORIENTED_EDGE ( 'NONE', *, *, #615, .T. ) ;
#57 = DIRECTION ( 'NONE',  ( 0.000000000000000000, 0.000000000000000000, 1.000000000000000000 ) ) ;
#58 = DATE_AND_TIME ( #845, #869 ) ;
#59 = EDGE_LOOP ( 'NONE', ( #720, #414, #736, #670 ) ) ;
#60 = CARTESIAN_POINT ( 'NONE',  ( 0.01725000000000000144, 0.03150000000000000022, 0.009000000000000034014 ) ) ;
#61 = ORIENTED_EDGE ( 'NONE', *, *, #581, .T. ) ;
#62 = LINE ( 'NONE', #408, #596 ) ;
#63 = PERSON_AND_ORGANIZATION ( #413, #1075 ) ;
#64 = DIRECTION ( 'NONE',  ( -0.000000000000000000, -0.000000000000000000, -1.000000000000000000 ) ) ;
#65 = DIRECTION ( 'NONE',  ( -0.000000000000000000, -0.000000000000000000, 1.000000000000000000 ) ) ;
#66 = ORIENTED_EDGE ( 'NONE', *, *, #542, .F. ) ;
#67 = CIRCLE ( 'NONE', #433, 0.01125000000000000132 ) ;
#68 = DIRECTION ( 'NONE',  ( -1.000000000000000000, 0.000000000000000000, 0.000000000000000000 ) ) ;
#69 = COORDINATED_UNIVERSAL_TIME_OFFSET ( 1, 0, .AHEAD. ) ;
#70 = CARTESIAN_POINT ( 'NONE',  ( 0.04000000000000000083, 0.01000000000000000021, 0.003000000000000000062 ) ) ;
#71 = DIRECTION ( 'NONE',  ( -1.000000000000000000, 0.000000000000000000, -0.000000000000000000 ) ) ;
#72 = VECTOR ( 'NONE', #107, 1.000000000000000000 ) ;
#73 = ORIENTED_EDGE ( 'NONE', *, *, #577, .F. ) ;
#74 = DIRECTION ( 'NONE',  ( -0.000000000000000000, -0.000000000000000000, -1.000000000000000000 ) ) ;
#75 = DIRECTION ( 'NONE',  ( -1.000000000000000000, 0.000000000000000000, 0.000000000000000000 ) ) ;
#76 = DIRECTION ( 'NONE',  ( 1.000000000000000000, 0.000000000000000000, 0.000000000000000000 ) ) ;
#77 = ORIENTED_EDGE ( 'NONE', *, *, #452, .T. ) ;
#78 = LOCAL_TIME ( 19, 4, 35.00000000000000000, #1041 ) ;
#79 = DIRECTION ( 'NONE',  ( 0.000000000000000000, 0.000000000000000000, 1.000000000000000000 ) ) ;
#80 = CARTESIAN_POINT ( 'NONE',  ( 0.03029045599745482792, 0.09639999999999999958, -0.006000000000000000125 ) ) ;
#81 = DIRECTION ( 'NONE',  ( -0.000000000000000000, -0.000000000000000000, 1.000000000000000000 ) ) ;
#82 = DIRECTION ( 'NONE',  ( 0.000000000000000000, 0.000000000000000000, -1.000000000000000000 ) ) ;
#83 = ADVANCED_FACE ( 'NONE', ( #693 ), #430, .F. ) ;
#84 = ORIENTED_EDGE ( 'NONE', *, *, #1044, .T. ) ;
#85 = LINE ( 'NONE', #1058, #33 ) ;
#86 = VERTEX_POINT ( 'NONE', #419 ) ;
#87 = AXIS2_PLACEMENT_3D ( 'NONE', #875, #792, #355 ) ;
#88 = APPROVAL_DATE_TIME ( #445, #979 ) ;
#89 = VECTOR ( 'NONE', #219, 1.000000000000000000 ) ;
#90 = FACE_OUTER_BOUND ( 'NONE', #302, .T. ) ;
#91 = EDGE_CURVE ( 'NONE', #1024, #406, #502, .T. ) ;
#92 = ORIENTED_EDGE ( 'NONE', *, *, #814, .F. ) ;
#93 = EDGE_CURVE ( 'NONE', #1000, #1045, #877, .T. ) ;
#94 = AXIS2_PLACEMENT_3D ( 'NONE', #442, #262, #708 ) ;
#95 = CARTESIAN_POINT ( 'NONE',  ( 0.04000000000000000083, 0.000000000000000000, 0.01000000000000000021 ) ) ;
#96 = ORIENTED_EDGE ( 'NONE', *, *, #1044, .F. ) ;
#97 = DIRECTION ( 'NONE',  ( -1.000000000000000000, 0.000000000000000000, 0.000000000000000000 ) ) ;
#98 = ORIENTED_EDGE ( 'NONE', *, *, #134, .T. ) ;
#99 = EDGE_CURVE ( 'NONE', #187, #988, #497, .T. ) ;
#100 = CARTESIAN_POINT ( 'NONE',  ( 0.01200000000000000025, 0.005000000000000000971, 0.01299999999999999940 ) ) ;
#101 = VERTEX_POINT ( 'NONE', #1125 ) ;
#102 = COORDINATED_UNIVERSAL_TIME_OFFSET ( 1, 0, .AHEAD. ) ;
#103 = EDGE_CURVE ( 'NONE', #769, #924, #853, .T. ) ;
#104 = DIRECTION ( 'NONE',  ( 0.000000000000000000, 0.000000000000000000, 1.000000000000000000 ) ) ;
#105 = DIRECTION ( 'NONE',  ( 0.000000000000000000, 1.000000000000000000, 0.000000000000000000 ) ) ;
#106 = EDGE_LOOP ( 'NONE', ( #994, #711, #259, #575 ) ) ;
#107 = DIRECTION ( 'NONE',  ( -0.000000000000000000, -0.000000000000000000, 1.000000000000000000 ) ) ;
#108 = EDGE_CURVE ( 'NONE', #306, #835, #415, .T. ) ;
#109 = FACE_OUTER_BOUND ( 'NONE', #225, .T. ) ;
#110 = EDGE_LOOP ( 'NONE', ( #791, #179 ) ) ;
#111 = CARTESIAN_POINT ( 'NONE',  ( 0.04000000000000000083, 0.01000000000000000021, 0.01969999999999999876 ) ) ;
#112 = DIRECTION ( 'NONE',  ( -1.000000000000000000, -0.000000000000000000, -0.000000000000000000 ) ) ;
#113 = VERTEX_POINT ( 'NONE', #338 ) ;
#114 = DIRECTION ( 'NONE',  ( -0.000000000000000000, -0.000000000000000000, -1.000000000000000000 ) ) ;
#115 = ORIENTED_EDGE ( 'NONE', *, *, #99, .T. ) ;
#116 = AXIS2_PLACEMENT_3D ( 'NONE', #422, #691, #4 ) ;
#117 = ORIENTED_EDGE ( 'NONE', *, *, #28, .F. ) ;
#118 = CC_DESIGN_DATE_AND_TIME_ASSIGNMENT ( #692, #578, ( #1139 ) ) ;
#119 = CARTESIAN_POINT ( 'NONE',  ( 0.000000000000000000, 0.01000000000000000021, 0.01000000000000000021 ) ) ;
#120 = DIRECTION ( 'NONE',  ( 0.000000000000000000, 0.000000000000000000, 1.000000000000000000 ) ) ;
#121 = CARTESIAN_POINT ( 'NONE',  ( 0.02000000000000000042, 0.03150000000000000022, 0.01000000000000000021 ) ) ;
#122 = AXIS2_PLACEMENT_3D ( 'NONE', #298, #120, #901 ) ;
#123 = ORIENTED_EDGE ( 'NONE', *, *, #1022, .F. ) ;
#124 = ORIENTED_EDGE ( 'NONE', *, *, #507, .F. ) ;
#125 = FACE_OUTER_BOUND ( 'NONE', #821, .T. ) ;
#126 = CARTESIAN_POINT ( 'NONE',  ( 0.000000000000000000, 0.000000000000000000, 0.003000000000000000062 ) ) ;
#127 = VECTOR ( 'NONE', #168, 1.000000000000000000 ) ;
#128 = ORIENTED_EDGE ( 'NONE', *, *, #890, .F. ) ;
#129 = DIRECTION ( 'NONE',  ( 0.000000000000000000, 0.000000000000000000, -1.000000000000000000 ) ) ;
#130 = ORIENTED_EDGE ( 'NONE', *, *, #1100, .T. ) ;
#131 = CARTESIAN_POINT ( 'NONE',  ( 0.04000000000000000083, 0.000000000000000000, 0.01000000000000000021 ) ) ;
#132 = EDGE_CURVE ( 'NONE', #683, #1112, #1048, .T. ) ;
#133 = ORIENTED_EDGE ( 'NONE', *, *, #899, .F. ) ;
#134 = EDGE_CURVE ( 'NONE', #10, #913, #1123, .T. ) ;
#135 = DIRECTION ( 'NONE',  ( -1.000000000000000000, 0.000000000000000000, 0.000000000000000000 ) ) ;
#136 = VECTOR ( 'NONE', #862, 1.000000000000000000 ) ;
#137 = VERTEX_POINT ( 'NONE', #212 ) ;
#138 = VECTOR ( 'NONE', #64, 1.000000000000000000 ) ;
#139 = CARTESIAN_POINT ( 'NONE',  ( 0.02000000000000000042, 0.03150000000000000022, 0.006000000000000000125 ) ) ;
#140 = LINE ( 'NONE', #593, #920 ) ;
#141 = ORIENTED_EDGE ( 'NONE', *, *, #1060, .F. ) ;
#142 = FACE_OUTER_BOUND ( 'NONE', #723, .T. ) ;
#143 = AXIS2_PLACEMENT_3D ( 'NONE', #741, #895, #804 ) ;
#144 = EDGE_CURVE ( 'NONE', #526, #963, #929, .T. ) ;
#145 = VERTEX_POINT ( 'NONE', #119 ) ;
#146 = DIRECTION ( 'NONE',  ( 0.000000000000000000, 0.000000000000000000, -1.000000000000000000 ) ) ;
#147 = APPROVAL_STATUS ( 'not_yet_approved' ) ;
#148 = CARTESIAN_POINT ( 'NONE',  ( 0.000000000000000000, 0.05299999999999999850, 0.003000000000000000062 ) ) ;
#149 = DIRECTION ( 'NONE',  ( 0.000000000000000000, 0.000000000000000000, -1.000000000000000000 ) ) ;
#150 = VECTOR ( 'NONE', #902, 1.000000000000000000 ) ;
#151 = ADVANCED_FACE ( 'NONE', ( #125 ), #1102, .F. ) ;
#152 = EDGE_LOOP ( 'NONE', ( #978, #271 ) ) ;
#153 = CARTESIAN_POINT ( 'NONE',  ( 0.02000000000000000042, 0.03150000000000000022, 0.01399999999999998815 ) ) ;
#154 = CIRCLE ( 'NONE', #888, 0.01099999999999999416 ) ;
#155 = FACE_OUTER_BOUND ( 'NONE', #49, .T. ) ;
#156 = FACE_OUTER_BOUND ( 'NONE', #363, .T. ) ;
#157 = ORIENTED_EDGE ( 'NONE', *, *, #261, .T. ) ;
#158 = AXIS2_PLACEMENT_3D ( 'NONE', #153, #856, #68 ) ;
#159 = CARTESIAN_POINT ( 'NONE',  ( 0.04000000000000000083, 0.05299999999999999850, 0.003000000000000000062 ) ) ;
#160 = EDGE_CURVE ( 'NONE', #370, #941, #315, .T. ) ;
#161 = DIRECTION ( 'NONE',  ( -0.000000000000000000, -0.000000000000000000, 1.000000000000000000 ) ) ;
#162 = DIRECTION ( 'NONE',  ( 0.000000000000000000, 0.000000000000000000, -1.000000000000000000 ) ) ;
#163 = DIRECTION ( 'NONE',  ( -1.000000000000000000, 0.000000000000000000, 0.000000000000000000 ) ) ;
#164 = APPLICATION_CONTEXT ( 'configuration controlled 3d designs of mechanical parts and assemblies' ) ;
#165 = CONICAL_SURFACE ( 'NONE', #1032, 0.003749999999999961697, 0.7853981633974466137 ) ;
#166 = EDGE_LOOP ( 'NONE', ( #1074, #954 ) ) ;
#167 = DIRECTION ( 'NONE',  ( -1.000000000000000000, 0.000000000000000000, 0.000000000000000000 ) ) ;
#168 = DIRECTION ( 'NONE',  ( -0.000000000000000000, -0.000000000000000000, 1.000000000000000000 ) ) ;
#169 = EDGE_CURVE ( 'NONE', #988, #924, #232, .T. ) ;
#170 = DIRECTION ( 'NONE',  ( -1.000000000000000000, 0.000000000000000000, 0.000000000000000000 ) ) ;
#171 = ORIENTED_EDGE ( 'NONE', *, *, #103, .T. ) ;
#172 = PLANE ( 'NONE',  #589 ) ;
#173 = EDGE_LOOP ( 'NONE', ( #401, #317, #395, #1151 ) ) ;
#174 = EDGE_CURVE ( 'NONE', #493, #709, #567, .T. ) ;
#175 = CARTESIAN_POINT ( 'NONE',  ( 0.000000000000000000, 0.1100000000000000006, 0.01000000000000000021 ) ) ;
#176 = ADVANCED_FACE ( 'NONE', ( #1027, #1116 ), #494, .T. ) ;
#177 = EDGE_LOOP ( 'NONE', ( #662, #825, #879, #1038 ) ) ;
#178 = CARTESIAN_POINT ( 'NONE',  ( 0.02000000000000000042, 0.03150000000000000022, 0.006000000000000000125 ) ) ;
#179 = ORIENTED_EDGE ( 'NONE', *, *, #446, .T. ) ;
#180 = CIRCLE ( 'NONE', #412, 0.01125000000000000132 ) ;
#181 = CIRCLE ( 'NONE', #360, 0.003749999999999961697 ) ;
#182 = DIRECTION ( 'NONE',  ( -0.000000000000000000, -0.000000000000000000, -1.000000000000000000 ) ) ;
#183 = CARTESIAN_POINT ( 'NONE',  ( 0.03250000000000000111, 0.005000000000000000104, 0.000000000000000000 ) ) ;
#184 = ORIENTED_EDGE ( 'NONE', *, *, #19, .T. ) ;
#185 = APPROVAL_STATUS ( 'not_yet_approved' ) ;
#186 = CARTESIAN_POINT ( 'NONE',  ( 0.02949999999999999845, 0.005000000000000000104, 0.01969999999999999876 ) ) ;
#187 = VERTEX_POINT ( 'NONE', #43 ) ;
#188 = VECTOR ( 'NONE', #469, 1.000000000000000000 ) ;
#189 = CARTESIAN_POINT ( 'NONE',  ( 0.000000000000000000, 0.05299999999999999850, 0.000000000000000000 ) ) ;
#190 = CIRCLE ( 'NONE', #830, 0.01000000000000000021 ) ;
#191 = ORIENTED_EDGE ( 'NONE', *, *, #256, .T. ) ;
#192 = CIRCLE ( 'NONE', #230, 0.01000000000000000021 ) ;
#193 = DIRECTION ( 'NONE',  ( -1.000000000000000000, 0.000000000000000000, -0.000000000000000000 ) ) ;
#194 = ORIENTED_EDGE ( 'NONE', *, *, #256, .F. ) ;
#195 = CONICAL_SURFACE ( 'NONE', #378, 0.01099999999999999589, 0.7853981633974500554 ) ;
#196 = DIRECTION ( 'NONE',  ( -0.000000000000000000, -0.000000000000000000, -1.000000000000000000 ) ) ;
#197 = EDGE_CURVE ( 'NONE', #354, #683, #472, .T. ) ;
#198 = LINE ( 'NONE', #37, #535 ) ;
#199 = ORIENTED_EDGE ( 'NONE', *, *, #160, .F. ) ;
#200 = AXIS2_PLACEMENT_3D ( 'NONE', #781, #324, #330 ) ;
#201 = FACE_BOUND ( 'NONE', #152, .T. ) ;
#202 = DIRECTION ( 'NONE',  ( -1.000000000000000000, 0.000000000000000000, 0.000000000000000000 ) ) ;
#203 = PLANE ( 'NONE',  #1005 ) ;
#204 = EDGE_CURVE ( 'NONE', #1045, #1000, #836, .T. ) ;
#205 = ORIENTED_EDGE ( 'NONE', *, *, #542, .T. ) ;
#206 = PLANE ( 'NONE',  #143 ) ;
#207 = CARTESIAN_POINT ( 'NONE',  ( 0.03250000000000000111, 0.005000000000000000104, 0.02099999999999999090 ) ) ;
#208 = ORIENTED_EDGE ( 'NONE', *, *, #971, .T. ) ;
#209 = AXIS2_PLACEMENT_3D ( 'NONE', #999, #749, #1107 ) ;
#210 = FACE_OUTER_BOUND ( 'NONE', #1070, .T. ) ;
#211 = ORIENTED_EDGE ( 'NONE', *, *, #169, .F. ) ;
#212 = CARTESIAN_POINT ( 'NONE',  ( 0.004499999999999999660, 0.005000000000000000104, 0.01299999999999999940 ) ) ;
#213 = DIRECTION ( 'NONE',  ( 1.000000000000000000, 0.000000000000000000, -0.000000000000000000 ) ) ;
#214 = AXIS2_PLACEMENT_3D ( 'NONE', #379, #733, #293 ) ;
#215 = EDGE_LOOP ( 'NONE', ( #23, #900, #1057, #755 ) ) ;
#216 = CARTESIAN_POINT ( 'NONE',  ( 0.000000000000000000, 0.000000000000000000, 0.01969999999999999876 ) ) ;
#217 = ORIENTED_EDGE ( 'NONE', *, *, #132, .F. ) ;
#218 = EDGE_CURVE ( 'NONE', #627, #545, #1142, .T. ) ;
#219 = DIRECTION ( 'NONE',  ( -0.000000000000000000, -1.000000000000000000, -0.000000000000000000 ) ) ;
#220 = ADVANCED_FACE ( 'NONE', ( #851 ), #659, .F. ) ;
#221 = LINE ( 'NONE', #474, #487 ) ;
#222 = CARTESIAN_POINT ( 'NONE',  ( 0.03229045599745483663, 0.09639999999999999958, 0.01000000000000000021 ) ) ;
#223 = APPROVAL_PERSON_ORGANIZATION ( #1118, #476, #930 ) ;
#224 = ORIENTED_EDGE ( 'NONE', *, *, #144, .T. ) ;
#225 = EDGE_LOOP ( 'NONE', ( #559, #743, #974, #739 ) ) ;
#226 = CARTESIAN_POINT ( 'NONE',  ( 0.02800000000000000058, 0.005000000000000000104, 0.01299999999999999940 ) ) ;
#227 = APPROVAL_ROLE ( '' ) ;
#228 = VERTEX_POINT ( 'NONE', #740 ) ;
#229 = DIRECTION ( 'NONE',  ( 0.000000000000000000, -1.000000000000000000, 0.000000000000000000 ) ) ;
#230 = AXIS2_PLACEMENT_3D ( 'NONE', #465, #459, #393 ) ;
#231 = ORIENTED_EDGE ( 'NONE', *, *, #93, .T. ) ;
#232 = CIRCLE ( 'NONE', #375, 0.003000000000000002665 ) ;
#233 = CARTESIAN_POINT ( 'NONE',  ( 0.04000000000000000083, 0.05299999999999999850, 0.003000000000000000062 ) ) ;
#234 = CARTESIAN_POINT ( 'NONE',  ( 0.03700000000000000511, 0.005000000000000000971, 0.01299999999999999940 ) ) ;
#235 = FACE_OUTER_BOUND ( 'NONE', #796, .T. ) ;
#236 = VECTOR ( 'NONE', #1076, 1.000000000000000000 ) ;
#237 = EDGE_LOOP ( 'NONE', ( #312, #115, #705, #555 ) ) ;
#238 = CARTESIAN_POINT ( 'NONE',  ( 0.003000000000000000062, 0.005000000000000000104, 0.01299999999999999940 ) ) ;
#239 = PERSON_AND_ORGANIZATION_ROLE ( 'design_supplier' ) ;
#240 = CARTESIAN_POINT ( 'NONE',  ( 0.03250000000000000111, 0.005000000000000000104, 0.000000000000000000 ) ) ;
#241 = DIRECTION ( 'NONE',  ( -1.000000000000000000, 0.000000000000000000, 0.000000000000000000 ) ) ;
#242 = EDGE_CURVE ( 'NONE', #650, #398, #62, .T. ) ;
#243 = VERTEX_POINT ( 'NONE', #233 ) ;
#244 = DIRECTION ( 'NONE',  ( -1.000000000000000000, 0.000000000000000000, 0.000000000000000000 ) ) ;
#245 = PERSON_AND_ORGANIZATION ( #413, #1075 ) ;
#246 = CYLINDRICAL_SURFACE ( 'NONE', #484, 0.01099999999999999589 ) ;
#247 = CARTESIAN_POINT ( 'NONE',  ( 0.04000000000000000083, 0.1100000000000000006, 0.000000000000000000 ) ) ;
#248 = EDGE_LOOP ( 'NONE', ( #664, #726, #485, #760 ) ) ;
#249 = FACE_OUTER_BOUND ( 'NONE', #279, .T. ) ;
#250 = CARTESIAN_POINT ( 'NONE',  ( 0.000000000000000000, 0.000000000000000000, 0.000000000000000000 ) ) ;
#251 = FACE_OUTER_BOUND ( 'NONE', #602, .T. ) ;
#252 = VERTEX_POINT ( 'NONE', #226 ) ;
#253 = FACE_OUTER_BOUND ( 'NONE', #254, .T. ) ;
#254 = EDGE_LOOP ( 'NONE', ( #762, #887, #436, #505, #973, #499, #818, #84, #489, #421 ) ) ;
#255 = EDGE_CURVE ( 'NONE', #861, #526, #1007, .T. ) ;
#256 = EDGE_CURVE ( 'NONE', #228, #861, #190, .T. ) ;
#257 = CARTESIAN_POINT ( 'NONE',  ( 0.02029045599745482598, 0.09639999999999999958, 0.002000000000000000042 ) ) ;
#258 = CYLINDRICAL_SURFACE ( 'NONE', #1087, 0.004500000000000000527 ) ;
#259 = ORIENTED_EDGE ( 'NONE', *, *, #280, .T. ) ;
#260 = DIRECTION ( 'NONE',  ( -1.000000000000000000, 0.000000000000000000, 0.000000000000000000 ) ) ;
#261 = EDGE_CURVE ( 'NONE', #387, #913, #154, .T. ) ;
#262 = DIRECTION ( 'NONE',  ( -0.000000000000000000, -0.000000000000000000, 1.000000000000000000 ) ) ;
#263 = VERTEX_POINT ( 'NONE', #238 ) ;
#264 = FACE_OUTER_BOUND ( 'NONE', #580, .T. ) ;
#265 = AXIS2_PLACEMENT_3D ( 'NONE', #933, #65, #76 ) ;
#266 = AXIS2_PLACEMENT_3D ( 'NONE', #70, #1129, #701 ) ;
#267 = CARTESIAN_POINT ( 'NONE',  ( 0.04000000000000000083, 0.05299999999999999850, 0.003000000000000000062 ) ) ;
#268 = EDGE_CURVE ( 'NONE', #461, #137, #838, .T. ) ;
#269 = ORIENTED_EDGE ( 'NONE', *, *, #707, .F. ) ;
#270 = CIRCLE ( 'NONE', #719, 0.004499999999999999660 ) ;
#271 = ORIENTED_EDGE ( 'NONE', *, *, #144, .F. ) ;
#272 = CARTESIAN_POINT ( 'NONE',  ( 0.000000000000000000, 0.01000000000000000021, 0.000000000000000000 ) ) ;
#273 = CARTESIAN_POINT ( 'NONE',  ( 0.02000000000000000042, 0.03150000000000000022, 0.006000000000000000125 ) ) ;
#274 = EDGE_LOOP ( 'NONE', ( #1062, #130 ) ) ;
#275 = EDGE_CURVE ( 'NONE', #263, #752, #1056, .T. ) ;
#276 = CONICAL_SURFACE ( 'NONE', #333, 0.003749999999999961697, 0.7853981633974466137 ) ;
#277 = COORDINATED_UNIVERSAL_TIME_OFFSET ( 1, 0, .AHEAD. ) ;
#278 = FACE_OUTER_BOUND ( 'NONE', #237, .T. ) ;
#279 = EDGE_LOOP ( 'NONE', ( #269, #849, #926, #1017 ) ) ;
#280 = EDGE_CURVE ( 'NONE', #387, #1045, #85, .T. ) ;
#281 = AXIS2_PLACEMENT_3D ( 'NONE', #872, #82, #721 ) ;
#282 = FACE_OUTER_BOUND ( 'NONE', #1025, .T. ) ;
#283 = AXIS2_PLACEMENT_3D ( 'NONE', #511, #1036, #944 ) ;
#284 = EDGE_LOOP ( 'NONE', ( #471, #520, #803, #946 ) ) ;
#285 = VECTOR ( 'NONE', #990, 1.000000000000000000 ) ;
#286 = ADVANCED_FACE ( 'NONE', ( #253 ), #172, .F. ) ;
#287 = CARTESIAN_POINT ( 'NONE',  ( 0.009290455997454831819, 0.09639999999999999958, 0.008999999999999987177 ) ) ;
#288 = DIRECTION ( 'NONE',  ( -0.000000000000000000, -0.000000000000000000, 1.000000000000000000 ) ) ;
#289 = EDGE_CURVE ( 'NONE', #590, #1112, #604, .T. ) ;
#290 = CIRCLE ( 'NONE', #351, 0.002749999999999998973 ) ;
#291 = ORIENTED_EDGE ( 'NONE', *, *, #998, .T. ) ;
#292 = CC_DESIGN_APPROVAL ( #362, ( #1139 ) ) ;
#293 = DIRECTION ( 'NONE',  ( -1.000000000000000000, 0.000000000000000000, 0.000000000000000000 ) ) ;
#294 = DIRECTION ( 'NONE',  ( -1.000000000000000000, 0.000000000000000000, 0.000000000000000000 ) ) ;
#295 = LINE ( 'NONE', #649, #953 ) ;
#296 = EDGE_LOOP ( 'NONE', ( #73, #124 ) ) ;
#297 = DIRECTION ( 'NONE',  ( -0.000000000000000000, -0.000000000000000000, -1.000000000000000000 ) ) ;
#298 = CARTESIAN_POINT ( 'NONE',  ( 0.02029045599745482598, 0.09639999999999999958, 0.002000000000000000042 ) ) ;
#299 = EDGE_LOOP ( 'NONE', ( #444, #921, #466, #889 ) ) ;
#300 = CIRCLE ( 'NONE', #372, 0.01125000000000000132 ) ;
#301 = EDGE_CURVE ( 'NONE', #748, #113, #290, .T. ) ;
#302 = EDGE_LOOP ( 'NONE', ( #1098, #449, #117, #1101 ) ) ;
#303 = DIRECTION ( 'NONE',  ( 1.000000000000000000, 0.000000000000000000, 0.000000000000000000 ) ) ;
#304 = CARTESIAN_POINT ( 'NONE',  ( 0.02029045599745482598, 0.09639999999999999958, 0.002000000000000000042 ) ) ;
#305 = DIRECTION ( 'NONE',  ( 0.000000000000000000, 0.000000000000000000, -1.000000000000000000 ) ) ;
#306 = VERTEX_POINT ( 'NONE', #788 ) ;
#307 = CARTESIAN_POINT ( 'NONE',  ( 0.03250000000000000111, 0.005000000000000000104, 0.01299999999999999940 ) ) ;
#308 = ORIENTED_EDGE ( 'NONE', *, *, #956, .T. ) ;
#309 = EDGE_CURVE ( 'NONE', #913, #387, #2, .T. ) ;
#310 = DIRECTION ( 'NONE',  ( -1.000000000000000000, 0.000000000000000000, 0.000000000000000000 ) ) ;
#311 = FACE_OUTER_BOUND ( 'NONE', #839, .T. ) ;
#312 = ORIENTED_EDGE ( 'NONE', *, *, #1108, .F. ) ;
#313 = FACE_BOUND ( 'NONE', #612, .T. ) ;
#314 = ORIENTED_EDGE ( 'NONE', *, *, #1108, .T. ) ;
#315 = LINE ( 'NONE', #131, #583 ) ;
#316 = CYLINDRICAL_SURFACE ( 'NONE', #473, 0.01000000000000000194 ) ;
#317 = ORIENTED_EDGE ( 'NONE', *, *, #13, .F. ) ;
#318 = MANIFOLD_SOLID_BREP ( 'Schnitt-Linear austragen8', #1103 ) ;
#319 = CARTESIAN_POINT ( 'NONE',  ( 0.000000000000000000, 0.1100000000000000006, 0.01000000000000000021 ) ) ;
#320 = AXIS2_PLACEMENT_3D ( 'NONE', #95, #167, #79 ) ;
#321 = ORIENTED_EDGE ( 'NONE', *, *, #1148, .F. ) ;
#322 = AXIS2_PLACEMENT_3D ( 'NONE', #240, #777, #410 ) ;
#323 = DIRECTION ( 'NONE',  ( -0.000000000000000000, -0.000000000000000000, 1.000000000000000000 ) ) ;
#324 = DIRECTION ( 'NONE',  ( 0.000000000000000000, 0.000000000000000000, 1.000000000000000000 ) ) ;
#325 = CARTESIAN_POINT ( 'NONE',  ( 0.02949999999999999845, 0.005000000000000000104, 0.02099999999999999090 ) ) ;
#326 = EDGE_CURVE ( 'NONE', #545, #903, #780, .T. ) ;
#327 = DIRECTION ( 'NONE',  ( 0.000000000000000000, 0.000000000000000000, -1.000000000000000000 ) ) ;
#328 = EDGE_LOOP ( 'NONE', ( #1119, #1140 ) ) ;
#329 = DIRECTION ( 'NONE',  ( -0.000000000000000000, -1.000000000000000000, -0.000000000000000000 ) ) ;
#330 = DIRECTION ( 'NONE',  ( 1.000000000000000000, 0.000000000000000000, 0.000000000000000000 ) ) ;
#331 = DIRECTION ( 'NONE',  ( -0.000000000000000000, -0.000000000000000000, 1.000000000000000000 ) ) ;
#332 = CARTESIAN_POINT ( 'NONE',  ( 0.007499999999999999722, 0.005000000000000000104, 0.01299999999999999940 ) ) ;
#333 = AXIS2_PLACEMENT_3D ( 'NONE', #121, #288, #551 ) ;
#334 = EDGE_CURVE ( 'NONE', #448, #86, #948, .T. ) ;
#335 = ORIENTED_EDGE ( 'NONE', *, *, #832, .F. ) ;
#336 = DIRECTION ( 'NONE',  ( -0.000000000000000000, -0.000000000000000000, -1.000000000000000000 ) ) ;
#337 = COORDINATED_UNIVERSAL_TIME_OFFSET ( 1, 0, .AHEAD. ) ;
#338 = CARTESIAN_POINT ( 'NONE',  ( 0.01725000000000000144, 0.03150000000000000022, 0.006000000000000000125 ) ) ;
#339 = DIRECTION ( 'NONE',  ( -1.000000000000000000, -0.000000000000000000, -0.000000000000000000 ) ) ;
#340 = EDGE_CURVE ( 'NONE', #10, #101, #696, .T. ) ;
#341 = AXIS2_PLACEMENT_3D ( 'NONE', #441, #435, #1039 ) ;
#342 = EDGE_LOOP ( 'NONE', ( #456, #434, #208, #828 ) ) ;
#343 = EDGE_CURVE ( 'NONE', #618, #590, #868, .T. ) ;
#344 = LINE ( 'NONE', #599, #927 ) ;
#345 = CARTESIAN_POINT ( 'NONE',  ( 0.02029045599745482598, 0.09639999999999999958, 0.01000000000000000021 ) ) ;
#346 = DIRECTION ( 'NONE',  ( -0.000000000000000000, -0.000000000000000000, -1.000000000000000000 ) ) ;
#347 = VECTOR ( 'NONE', #823, 1.000000000000000000 ) ;
#348 = ORIENTED_EDGE ( 'NONE', *, *, #48, .T. ) ;
#349 = DIRECTION ( 'NONE',  ( 0.000000000000000000, 0.000000000000000000, 1.000000000000000000 ) ) ;
#350 = ORIENTED_EDGE ( 'NONE', *, *, #174, .T. ) ;
#351 = AXIS2_PLACEMENT_3D ( 'NONE', #178, #608, #260 ) ;
#352 = FACE_OUTER_BOUND ( 'NONE', #59, .T. ) ;
#353 = AXIS2_PLACEMENT_3D ( 'NONE', #463, #1111, #1105 ) ;
#354 = VERTEX_POINT ( 'NONE', #710 ) ;
#355 = DIRECTION ( 'NONE',  ( -1.000000000000000000, 0.000000000000000000, 0.000000000000000000 ) ) ;
#356 = EDGE_CURVE ( 'NONE', #21, #650, #344, .T. ) ;
#357 = DIRECTION ( 'NONE',  ( 1.000000000000000000, 0.000000000000000000, 0.000000000000000000 ) ) ;
#358 = ORIENTED_EDGE ( 'NONE', *, *, #38, .T. ) ;
#359 = VECTOR ( 'NONE', #503, 1.000000000000000000 ) ;
#360 = AXIS2_PLACEMENT_3D ( 'NONE', #686, #1054, #517 ) ;
#361 = LINE ( 'NONE', #702, #1012 ) ;
#362 = APPROVAL ( #147, 'UNSPECIFIED' ) ;
#363 = EDGE_LOOP ( 'NONE', ( #205, #123, #47, #936 ) ) ;
#364 = AXIS2_PLACEMENT_3D ( 'NONE', #207, #475, #294 ) ;
#365 = FACE_BOUND ( 'NONE', #42, .T. ) ;
#366 = CC_DESIGN_APPROVAL ( #476, ( #667 ) ) ;
#367 = ORIENTED_EDGE ( 'NONE', *, *, #197, .F. ) ;
#368 = CARTESIAN_POINT ( 'NONE',  ( 0.007499999999999999722, 0.005000000000000000104, 0.01299999999999999940 ) ) ;
#369 = EDGE_CURVE ( 'NONE', #963, #526, #798, .T. ) ;
#370 = VERTEX_POINT ( 'NONE', #775 ) ;
#371 = ADVANCED_FACE ( 'NONE', ( #704 ), #515, .F. ) ;
#372 = AXIS2_PLACEMENT_3D ( 'NONE', #425, #327, #681 ) ;
#373 = CARTESIAN_POINT ( 'NONE',  ( 0.009290455997454831819, 0.09639999999999999958, 0.008999999999999987177 ) ) ;
#374 = CARTESIAN_POINT ( 'NONE',  ( 0.000000000000000000, 0.000000000000000000, 0.000000000000000000 ) ) ;
#375 = AXIS2_PLACEMENT_3D ( 'NONE', #402, #1014, #822 ) ;
#376 = PLANE ( 'NONE',  #209 ) ;
#377 = ORIENTED_EDGE ( 'NONE', *, *, #668, .T. ) ;
#378 = AXIS2_PLACEMENT_3D ( 'NONE', #795, #104, #8 ) ;
#379 = CARTESIAN_POINT ( 'NONE',  ( 0.007499999999999999722, 0.005000000000000000104, 0.000000000000000000 ) ) ;
#380 = CARTESIAN_POINT ( 'NONE',  ( 0.000000000000000000, 0.01000000000000000021, 0.01969999999999999876 ) ) ;
#381 = ORIENTED_EDGE ( 'NONE', *, *, #309, .T. ) ;
#382 = LINE ( 'NONE', #216, #766 ) ;
#383 = VERTEX_POINT ( 'NONE', #1134 ) ;
#384 = DIRECTION ( 'NONE',  ( -0.000000000000000000, -0.000000000000000000, 1.000000000000000000 ) ) ;
#385 = LINE ( 'NONE', #746, #993 ) ;
#386 = FACE_OUTER_BOUND ( 'NONE', #248, .T. ) ;
#387 = VERTEX_POINT ( 'NONE', #699 ) ;
#388 = ORIENTED_EDGE ( 'NONE', *, *, #446, .F. ) ;
#389 = DIRECTION ( 'NONE',  ( -1.000000000000000000, 0.000000000000000000, -0.000000000000000000 ) ) ;
#390 = DIRECTION ( 'NONE',  ( -1.000000000000000000, 0.000000000000000000, 0.000000000000000000 ) ) ;
#391 = CARTESIAN_POINT ( 'NONE',  ( 0.01200000000000000025, 0.005000000000000000971, 0.000000000000000000 ) ) ;
#392 = EDGE_LOOP ( 'NONE', ( #910, #744, #171, #211 ) ) ;
#393 = DIRECTION ( 'NONE',  ( -1.000000000000000000, 0.000000000000000000, 0.000000000000000000 ) ) ;
#394 = ADVANCED_FACE ( 'NONE', ( #249 ), #522, .F. ) ;
#395 = ORIENTED_EDGE ( 'NONE', *, *, #554, .F. ) ;
#396 = DIRECTION ( 'NONE',  ( -1.000000000000000000, 0.000000000000000000, 0.000000000000000000 ) ) ;
#397 = CARTESIAN_POINT ( 'NONE',  ( 0.000000000000000000, 0.01000000000000000021, 0.01000000000000000021 ) ) ;
#398 = VERTEX_POINT ( 'NONE', #1063 ) ;
#399 = DIRECTION ( 'NONE',  ( -1.000000000000000000, 0.000000000000000000, 0.000000000000000000 ) ) ;
#400 = ADVANCED_FACE ( 'NONE', ( #264 ), #942, .F. ) ;
#401 = ORIENTED_EDGE ( 'NONE', *, *, #242, .F. ) ;
#402 = CARTESIAN_POINT ( 'NONE',  ( 0.03250000000000000111, 0.005000000000000000104, 0.01299999999999999940 ) ) ;
#403 = LINE ( 'NONE', #516, #39 ) ;
#404 = ORIENTED_EDGE ( 'NONE', *, *, #1115, .F. ) ;
#405 = DIRECTION ( 'NONE',  ( -1.000000000000000000, 0.000000000000000000, 0.000000000000000000 ) ) ;
#406 = VERTEX_POINT ( 'NONE', #416 ) ;
#407 = EDGE_CURVE ( 'NONE', #448, #145, #770, .T. ) ;
#408 = CARTESIAN_POINT ( 'NONE',  ( 0.04000000000000000083, 0.05299999999999999850, 0.000000000000000000 ) ) ;
#409 = PERSON_AND_ORGANIZATION_ROLE ( 'creator' ) ;
#410 = DIRECTION ( 'NONE',  ( -1.000000000000000000, 0.000000000000000000, 0.000000000000000000 ) ) ;
#411 = CARTESIAN_POINT ( 'NONE',  ( 0.007499999999999999722, 0.005000000000000000104, 0.02099999999999999090 ) ) ;
#412 = AXIS2_PLACEMENT_3D ( 'NONE', #939, #149, #405 ) ;
#413 = PERSON ( 'UNSPECIFIED', 'UNSPECIFIED', 'UNSPECIFIED', ('UNSPECIFIED'), ('UNSPECIFIED'), ('UNSPECIFIED') ) ;
#414 = ORIENTED_EDGE ( 'NONE', *, *, #811, .T. ) ;
#415 = CIRCLE ( 'NONE', #322, 0.004500000000000000527 ) ;
#416 = CARTESIAN_POINT ( 'NONE',  ( 0.04000000000000000083, 0.01000000000000000021, 0.01969999999999999876 ) ) ;
#417 = LINE ( 'NONE', #80, #127 ) ;
#418 = EDGE_CURVE ( 'NONE', #243, #398, #684, .T. ) ;
#419 = CARTESIAN_POINT ( 'NONE',  ( 0.000000000000000000, 0.1100000000000000006, 0.000000000000000000 ) ) ;
#420 = FACE_BOUND ( 'NONE', #1127, .T. ) ;
#421 = ORIENTED_EDGE ( 'NONE', *, *, #334, .T. ) ;
#422 = CARTESIAN_POINT ( 'NONE',  ( 0.02029045599745482598, 0.09639999999999999958, 0.002000000000000000042 ) ) ;
#423 = CARTESIAN_POINT ( 'NONE',  ( 0.03550000000000000377, 0.005000000000000000104, 0.02099999999999999090 ) ) ;
#424 = EDGE_CURVE ( 'NONE', #835, #306, #504, .T. ) ;
#425 = CARTESIAN_POINT ( 'NONE',  ( 0.02000000000000000042, 0.03150000000000000022, 0.006000000000000000125 ) ) ;
#426 =( GEOMETRIC_REPRESENTATION_CONTEXT ( 3 ) GLOBAL_UNCERTAINTY_ASSIGNED_CONTEXT ( ( #934 ) ) GLOBAL_UNIT_ASSIGNED_CONTEXT ( ( #759, #509, #669 ) ) REPRESENTATION_CONTEXT ( 'NONE', 'WORKASPACE' ) );
#427 = EDGE_LOOP ( 'NONE', ( #388, #348, #52, #779 ) ) ;
#428 = CARTESIAN_POINT ( 'NONE',  ( 0.02029045599745482598, 0.09639999999999999958, 0.008999999999999987177 ) ) ;
#429 = DIRECTION ( 'NONE',  ( -0.000000000000000000, -0.000000000000000000, -1.000000000000000000 ) ) ;
#430 = CYLINDRICAL_SURFACE ( 'NONE', #283, 0.01000000000000000194 ) ;
#431 = DIRECTION ( 'NONE',  ( -1.000000000000000000, 0.000000000000000000, 0.000000000000000000 ) ) ;
#432 = ADVANCED_FACE ( 'NONE', ( #109 ), #639, .F. ) ;
#433 = AXIS2_PLACEMENT_3D ( 'NONE', #810, #730, #553 ) ;
#434 = ORIENTED_EDGE ( 'NONE', *, *, #787, .T. ) ;
#435 = DIRECTION ( 'NONE',  ( 0.000000000000000000, 0.000000000000000000, 1.000000000000000000 ) ) ;
#436 = ORIENTED_EDGE ( 'NONE', *, *, #971, .F. ) ;
#437 = AXIS2_PLACEMENT_3D ( 'NONE', #564, #591, #303 ) ;
#438 = CARTESIAN_POINT ( 'NONE',  ( 0.04000000000000000083, 0.01000000000000000021, 0.003000000000000000062 ) ) ;
#439 = VECTOR ( 'NONE', #114, 1.000000000000000000 ) ;
#440 = ORIENTED_EDGE ( 'NONE', *, *, #764, .F. ) ;
#441 = CARTESIAN_POINT ( 'NONE',  ( 0.02029045599745482598, 0.09639999999999999958, 0.002000000000000000042 ) ) ;
#442 = CARTESIAN_POINT ( 'NONE',  ( 0.007499999999999999722, 0.005000000000000000104, 0.01299999999999999940 ) ) ;
#443 = SECURITY_CLASSIFICATION ( '', '', #712 ) ;
#444 = ORIENTED_EDGE ( 'NONE', *, *, #343, .T. ) ;
#445 = DATE_AND_TIME ( #533, #1091 ) ;
#446 = EDGE_CURVE ( 'NONE', #34, #252, #12, .T. ) ;
#447 = FACE_OUTER_BOUND ( 'NONE', #177, .T. ) ;
#448 = VERTEX_POINT ( 'NONE', #925 ) ;
#449 = ORIENTED_EDGE ( 'NONE', *, *, #326, .T. ) ;
#450 = SHAPE_DEFINITION_REPRESENTATION ( #915, #510 ) ;
#451 = CARTESIAN_POINT ( 'NONE',  ( 0.01049999999999999892, 0.005000000000000000104, 0.01969999999999999876 ) ) ;
#452 = EDGE_CURVE ( 'NONE', #861, #228, #192, .T. ) ;
#453 = DIRECTION ( 'NONE',  ( 1.000000000000000000, 0.000000000000000000, -0.000000000000000000 ) ) ;
#454 = EDGE_CURVE ( 'NONE', #590, #1024, #382, .T. ) ;
#455 = ADVANCED_FACE ( 'NONE', ( #637 ), #376, .F. ) ;
#456 = ORIENTED_EDGE ( 'NONE', *, *, #890, .T. ) ;
#457 = DIRECTION ( 'NONE',  ( -1.000000000000000000, 0.000000000000000000, 0.000000000000000000 ) ) ;
#458 = DIRECTION ( 'NONE',  ( 0.000000000000000000, 0.000000000000000000, -1.000000000000000000 ) ) ;
#459 = DIRECTION ( 'NONE',  ( 0.000000000000000000, 0.000000000000000000, -1.000000000000000000 ) ) ;
#460 = CC_DESIGN_PERSON_AND_ORGANIZATION_ASSIGNMENT ( #679, #239, ( #667 ) ) ;
#461 = VERTEX_POINT ( 'NONE', #911 ) ;
#462 = DIRECTION ( 'NONE',  ( 0.000000000000000000, -0.000000000000000000, 1.000000000000000000 ) ) ;
#463 = CARTESIAN_POINT ( 'NONE',  ( 0.007499999999999999722, 0.005000000000000000104, 0.01969999999999999876 ) ) ;
#464 = ORIENTED_EDGE ( 'NONE', *, *, #958, .F. ) ;
#465 = CARTESIAN_POINT ( 'NONE',  ( 0.02029045599745482598, 0.09639999999999999958, 0.000000000000000000 ) ) ;
#466 = ORIENTED_EDGE ( 'NONE', *, *, #91, .T. ) ;
#467 = DIRECTION ( 'NONE',  ( 0.000000000000000000, 1.000000000000000000, 0.000000000000000000 ) ) ;
#468 = CARTESIAN_POINT ( 'NONE',  ( 0.007499999999999999722, 0.005000000000000000104, 0.02099999999999999090 ) ) ;
#469 = DIRECTION ( 'NONE',  ( -0.000000000000000000, -0.000000000000000000, -1.000000000000000000 ) ) ;
#470 = ORIENTED_EDGE ( 'NONE', *, *, #204, .T. ) ;
#471 = ORIENTED_EDGE ( 'NONE', *, *, #581, .F. ) ;
#472 = LINE ( 'NONE', #673, #694 ) ;
#473 = AXIS2_PLACEMENT_3D ( 'NONE', #1035, #161, #1124 ) ;
#474 = CARTESIAN_POINT ( 'NONE',  ( 0.02374999999999996211, 0.03150000000000000022, 0.01000000000000000021 ) ) ;
#475 = DIRECTION ( 'NONE',  ( -0.000000000000000000, -0.000000000000000000, -1.000000000000000000 ) ) ;
#476 = APPROVAL ( #852, 'UNSPECIFIED' ) ;
#477 = ORIENTED_EDGE ( 'NONE', *, *, #301, .T. ) ;
#478 = VECTOR ( 'NONE', #336, 1.000000000000000000 ) ;
#479 = EDGE_LOOP ( 'NONE', ( #960, #61 ) ) ;
#480 = CARTESIAN_POINT ( 'NONE',  ( 0.02029045599745482598, 0.09639999999999999958, 0.01000000000000000021 ) ) ;
#481 = AXIS2_PLACEMENT_3D ( 'NONE', #480, #146, #745 ) ;
#482 = AXIS2_PLACEMENT_3D ( 'NONE', #332, #687, #761 ) ;
#483 = DIRECTION ( 'NONE',  ( -0.000000000000000000, -0.000000000000000000, 1.000000000000000000 ) ) ;
#484 = AXIS2_PLACEMENT_3D ( 'NONE', #257, #81, #767 ) ;
#485 = ORIENTED_EDGE ( 'NONE', *, *, #751, .F. ) ;
#486 = DIRECTION ( 'NONE',  ( -0.000000000000000000, -0.000000000000000000, -1.000000000000000000 ) ) ;
#487 = VECTOR ( 'NONE', #831, 1.000000000000000000 ) ;
#488 = PERSON_AND_ORGANIZATION ( #413, #1075 ) ;
#489 = ORIENTED_EDGE ( 'NONE', *, *, #407, .F. ) ;
#490 = CARTESIAN_POINT ( 'NONE',  ( 0.007499999999999999722, 0.005000000000000000104, 0.01299999999999999940 ) ) ;
#491 = ADVANCED_FACE ( 'NONE', ( #1082 ), #1099, .F. ) ;
#492 = ADVANCED_FACE ( 'NONE', ( #663, #656 ), #203, .T. ) ;
#493 = VERTEX_POINT ( 'NONE', #548 ) ;
#494 = PLANE ( 'NONE',  #539 ) ;
#495 = AXIS2_PLACEMENT_3D ( 'NONE', #734, #458, #1097 ) ;
#496 = CALENDAR_DATE ( 2025, 27, 3 ) ;
#497 = LINE ( 'NONE', #423, #907 ) ;
#498 = CARTESIAN_POINT ( 'NONE',  ( 0.000000000000000000, 0.000000000000000000, 0.01969999999999999876 ) ) ;
#499 = ORIENTED_EDGE ( 'NONE', *, *, #289, .F. ) ;
#500 = DIRECTION ( 'NONE',  ( -0.7071067811865463515, 8.659560562354919300E-17, 0.7071067811865487940 ) ) ;
#501 = PERSON_AND_ORGANIZATION_ROLE ( 'creator' ) ;
#502 = LINE ( 'NONE', #938, #815 ) ;
#503 = DIRECTION ( 'NONE',  ( 1.000000000000000000, 0.000000000000000000, 0.000000000000000000 ) ) ;
#504 = CIRCLE ( 'NONE', #986, 0.004500000000000000527 ) ;
#505 = ORIENTED_EDGE ( 'NONE', *, *, #197, .T. ) ;
#506 = DIRECTION ( 'NONE',  ( -0.000000000000000000, -0.000000000000000000, -1.000000000000000000 ) ) ;
#507 = EDGE_CURVE ( 'NONE', #3, #614, #67, .T. ) ;
#508 = LINE ( 'NONE', #1135, #731 ) ;
#509 =( NAMED_UNIT ( * ) PLANE_ANGLE_UNIT ( ) SI_UNIT ( $, .RADIAN. ) );
#510 = ADVANCED_BREP_SHAPE_REPRESENTATION ( 'Halterung_1_Cycloidal', ( #318, #200 ), #426 ) ;
#511 = CARTESIAN_POINT ( 'NONE',  ( 0.02029045599745482598, 0.09639999999999999958, -0.006000000000000000125 ) ) ;
#512 = DIRECTION ( 'NONE',  ( 0.000000000000000000, -0.000000000000000000, 1.000000000000000000 ) ) ;
#513 = VECTOR ( 'NONE', #619, 1.000000000000000000 ) ;
#514 = ORIENTED_EDGE ( 'NONE', *, *, #707, .T. ) ;
#515 = PLANE ( 'NONE',  #320 ) ;
#516 = CARTESIAN_POINT ( 'NONE',  ( 0.04000000000000000083, 0.01000000000000000021, 0.000000000000000000 ) ) ;
#517 = DIRECTION ( 'NONE',  ( -1.000000000000000000, 0.000000000000000000, 0.000000000000000000 ) ) ;
#518 = FACE_BOUND ( 'NONE', #328, .T. ) ;
#519 = CC_DESIGN_APPROVAL ( #979, ( #443 ) ) ;
#520 = ORIENTED_EDGE ( 'NONE', *, *, #1073, .T. ) ;
#521 = DIRECTION ( 'NONE',  ( -0.000000000000000000, -0.000000000000000000, -1.000000000000000000 ) ) ;
#522 = CYLINDRICAL_SURFACE ( 'NONE', #87, 0.002749999999999998973 ) ;
#523 = ORIENTED_EDGE ( 'NONE', *, *, #452, .F. ) ;
#524 = CARTESIAN_POINT ( 'NONE',  ( 0.04000000000000000083, 0.01000000000000000021, 0.000000000000000000 ) ) ;
#525 = EDGE_CURVE ( 'NONE', #383, #3, #904, .T. ) ;
#526 = VERTEX_POINT ( 'NONE', #1093 ) ;
#527 = CARTESIAN_POINT ( 'NONE',  ( 0.000000000000000000, 0.000000000000000000, 0.01969999999999999876 ) ) ;
#528 = VECTOR ( 'NONE', #500, 1.000000000000000000 ) ;
#529 = FACE_BOUND ( 'NONE', #1114, .T. ) ;
#530 = VECTOR ( 'NONE', #521, 1.000000000000000000 ) ;
#531 = ORIENTED_EDGE ( 'NONE', *, *, #525, .T. ) ;
#532 = ADVANCED_FACE ( 'NONE', ( #210 ), #560, .F. ) ;
#533 = CALENDAR_DATE ( 2025, 27, 3 ) ;
#534 = CARTESIAN_POINT ( 'NONE',  ( 0.02000000000000000042, 0.03150000000000000022, 0.01000000000000000021 ) ) ;
#535 = VECTOR ( 'NONE', #1090, 1.000000000000000000 ) ;
#536 = ORIENTED_EDGE ( 'NONE', *, *, #407, .T. ) ;
#537 = ADVANCED_FACE ( 'NONE', ( #156 ), #847, .F. ) ;
#538 = CARTESIAN_POINT ( 'NONE',  ( 0.02274999999999999939, 0.03150000000000000022, 0.01399999999999998815 ) ) ;
#539 = AXIS2_PLACEMENT_3D ( 'NONE', #928, #937, #389 ) ;
#540 = EDGE_LOOP ( 'NONE', ( #128, #623, #358, #133, #199, #676, #1011, #1147, #308, #894 ) ) ;
#541 = CALENDAR_DATE ( 2025, 27, 3 ) ;
#542 = EDGE_CURVE ( 'NONE', #1112, #843, #773, .T. ) ;
#543 = CYLINDRICAL_SURFACE ( 'NONE', #802, 0.003000000000000002665 ) ;
#544 = ADVANCED_FACE ( 'NONE', ( #420, #313, #235 ), #866, .F. ) ;
#545 = VERTEX_POINT ( 'NONE', #60 ) ;
#546 = LINE ( 'NONE', #287, #620 ) ;
#547 = FACE_BOUND ( 'NONE', #6, .T. ) ;
#548 = CARTESIAN_POINT ( 'NONE',  ( 0.04000000000000000083, 0.01000000000000000021, 0.003000000000000000062 ) ) ;
#549 = VERTEX_POINT ( 'NONE', #1113 ) ;
#550 = FACE_OUTER_BOUND ( 'NONE', #342, .T. ) ;
#551 = DIRECTION ( 'NONE',  ( 1.000000000000000000, 0.000000000000000000, 0.000000000000000000 ) ) ;
#552 = ORIENTED_EDGE ( 'NONE', *, *, #764, .T. ) ;
#553 = DIRECTION ( 'NONE',  ( -1.000000000000000000, 0.000000000000000000, 0.000000000000000000 ) ) ;
#554 = EDGE_CURVE ( 'NONE', #607, #86, #675, .T. ) ;
#555 = ORIENTED_EDGE ( 'NONE', *, *, #103, .F. ) ;
#556 = CIRCLE ( 'NONE', #1067, 0.003000000000000002665 ) ;
#557 = DIRECTION ( 'NONE',  ( -0.000000000000000000, -0.000000000000000000, -1.000000000000000000 ) ) ;
#558 = CARTESIAN_POINT ( 'NONE',  ( 0.04000000000000000083, 0.000000000000000000, 0.01000000000000000021 ) ) ;
#559 = ORIENTED_EDGE ( 'NONE', *, *, #525, .F. ) ;
#560 = PLANE ( 'NONE',  #1122 ) ;
#561 = ORIENTED_EDGE ( 'NONE', *, *, #722, .F. ) ;
#562 = ADVANCED_FACE ( 'NONE', ( #1031 ), #582, .F. ) ;
#563 = AXIS2_PLACEMENT_3D ( 'NONE', #611, #965, #193 ) ;
#564 = CARTESIAN_POINT ( 'NONE',  ( 0.02029045599745482598, 0.09639999999999999958, 0.002000000000000000042 ) ) ;
#565 = CARTESIAN_POINT ( 'NONE',  ( 0.02800000000000000058, 0.005000000000000000104, 0.000000000000000000 ) ) ;
#566 = DIRECTION ( 'NONE',  ( -1.000000000000000000, -0.000000000000000000, -0.000000000000000000 ) ) ;
#567 = LINE ( 'NONE', #585, #985 ) ;
#568 = EDGE_LOOP ( 'NONE', ( #884, #477 ) ) ;
#569 = CARTESIAN_POINT ( 'NONE',  ( 0.007499999999999999722, 0.005000000000000000104, 0.01299999999999999940 ) ) ;
#570 = APPROVAL_PERSON_ORGANIZATION ( #765, #362, #227 ) ;
#571 = ADVANCED_FACE ( 'NONE', ( #142 ), #601, .F. ) ;
#572 = LINE ( 'NONE', #22, #72 ) ;
#573 = PLANE ( 'NONE',  #997 ) ;
#574 = EDGE_LOOP ( 'NONE', ( #774, #92, #966, #157 ) ) ;
#575 = ORIENTED_EDGE ( 'NONE', *, *, #93, .F. ) ;
#576 = DIRECTION ( 'NONE',  ( 0.000000000000000000, 0.000000000000000000, -1.000000000000000000 ) ) ;
#577 = EDGE_CURVE ( 'NONE', #614, #3, #180, .T. ) ;
#578 = DATE_TIME_ROLE ( 'creation_date' ) ;
#579 = VECTOR ( 'NONE', #329, 1.000000000000000000 ) ;
#580 = EDGE_LOOP ( 'NONE', ( #184, #514, #610, #141 ) ) ;
#581 = EDGE_CURVE ( 'NONE', #752, #263, #652, .T. ) ;
#582 = CYLINDRICAL_SURFACE ( 'NONE', #265, 0.01099999999999999589 ) ;
#583 = VECTOR ( 'NONE', #467, 1.000000000000000000 ) ;
#584 = EDGE_LOOP ( 'NONE', ( #672, #15 ) ) ;
#585 = CARTESIAN_POINT ( 'NONE',  ( 0.04000000000000000083, 0.01000000000000000021, 0.003000000000000000062 ) ) ;
#586 = CIRCLE ( 'NONE', #214, 0.004499999999999999660 ) ;
#587 = DIRECTION ( 'NONE',  ( 0.000000000000000000, 0.000000000000000000, -1.000000000000000000 ) ) ;
#588 = DIRECTION ( 'NONE',  ( -0.000000000000000000, -0.000000000000000000, -1.000000000000000000 ) ) ;
#589 = AXIS2_PLACEMENT_3D ( 'NONE', #880, #1141, #1150 ) ;
#590 = VERTEX_POINT ( 'NONE', #498 ) ;
#591 = DIRECTION ( 'NONE',  ( 0.000000000000000000, 0.000000000000000000, 1.000000000000000000 ) ) ;
#592 = LOCAL_TIME ( 19, 4, 35.00000000000000000, #277 ) ;
#593 = CARTESIAN_POINT ( 'NONE',  ( 0.01049999999999999892, 0.005000000000000000104, 0.02099999999999999090 ) ) ;
#594 = CARTESIAN_POINT ( 'NONE',  ( 0.003000000000000000062, 0.005000000000000000104, 0.000000000000000000 ) ) ;
#595 = CARTESIAN_POINT ( 'NONE',  ( 0.008749999999999999098, 0.03150000000000000022, 0.003000000000000000062 ) ) ;
#596 = VECTOR ( 'NONE', #916, 1.000000000000000000 ) ;
#597 = ADVANCED_FACE ( 'NONE', ( #1138 ), #854, .F. ) ;
#598 = ORIENTED_EDGE ( 'NONE', *, *, #1053, .F. ) ;
#599 = CARTESIAN_POINT ( 'NONE',  ( 0.000000000000000000, 0.05299999999999999850, 0.003000000000000000062 ) ) ;
#600 = CARTESIAN_POINT ( 'NONE',  ( 0.04000000000000000083, 0.000000000000000000, 0.000000000000000000 ) ) ;
#601 = CYLINDRICAL_SURFACE ( 'NONE', #858, 0.003000000000000000062 ) ;
#602 = EDGE_LOOP ( 'NONE', ( #404, #867, #66, #217 ) ) ;
#603 = AXIS2_PLACEMENT_3D ( 'NONE', #919, #483, #1092 ) ;
#604 = LINE ( 'NONE', #1051, #883 ) ;
#605 = CARTESIAN_POINT ( 'NONE',  ( 0.02000000000000000042, 0.03150000000000000022, 0.009000000000000034014 ) ) ;
#606 = DIRECTION ( 'NONE',  ( 0.000000000000000000, 0.000000000000000000, -1.000000000000000000 ) ) ;
#607 = VERTEX_POINT ( 'NONE', #247 ) ;
#608 = DIRECTION ( 'NONE',  ( -0.000000000000000000, -0.000000000000000000, 1.000000000000000000 ) ) ;
#609 = VECTOR ( 'NONE', #1110, 1.000000000000000000 ) ;
#610 = ORIENTED_EDGE ( 'NONE', *, *, #7, .F. ) ;
#611 = CARTESIAN_POINT ( 'NONE',  ( 0.000000000000000000, 0.000000000000000000, 0.000000000000000000 ) ) ;
#612 = EDGE_LOOP ( 'NONE', ( #968, #377 ) ) ;
#613 = DIRECTION ( 'NONE',  ( -0.000000000000000000, -0.000000000000000000, -1.000000000000000000 ) ) ;
#614 = VERTEX_POINT ( 'NONE', #595 ) ;
#615 = EDGE_CURVE ( 'NONE', #924, #988, #556, .T. ) ;
#616 = DIRECTION ( 'NONE',  ( 1.000000000000000000, 0.000000000000000000, 0.000000000000000000 ) ) ;
#617 = EDGE_CURVE ( 'NONE', #383, #655, #300, .T. ) ;
#618 = VERTEX_POINT ( 'NONE', #778 ) ;
#619 = DIRECTION ( 'NONE',  ( 1.000000000000000000, -0.000000000000000000, -0.000000000000000000 ) ) ;
#620 = VECTOR ( 'NONE', #1085, 1.000000000000000000 ) ;
#621 = DIRECTION ( 'NONE',  ( -1.000000000000000000, 0.000000000000000000, 0.000000000000000000 ) ) ;
#622 = EDGE_LOOP ( 'NONE', ( #1088, #98, #381, #335 ) ) ;
#623 = ORIENTED_EDGE ( 'NONE', *, *, #418, .T. ) ;
#624 = DIRECTION ( 'NONE',  ( -1.000000000000000000, 0.000000000000000000, 0.000000000000000000 ) ) ;
#625 = CIRCLE ( 'NONE', #645, 0.003000000000000002665 ) ;
#626 = DIRECTION ( 'NONE',  ( -0.000000000000000000, -0.000000000000000000, -1.000000000000000000 ) ) ;
#627 = VERTEX_POINT ( 'NONE', #1049 ) ;
#628 = ADVANCED_FACE ( 'NONE', ( #518, #695, #251 ), #1037, .T. ) ;
#629 = VECTOR ( 'NONE', #323, 1.000000000000000000 ) ;
#630 = LINE ( 'NONE', #267, #513 ) ;
#631 = AXIS2_PLACEMENT_3D ( 'NONE', #651, #384, #310 ) ;
#632 = AXIS2_PLACEMENT_3D ( 'NONE', #860, #606, #71 ) ;
#633 = ORIENTED_EDGE ( 'NONE', *, *, #706, .F. ) ;
#634 = AXIS2_PLACEMENT_3D ( 'NONE', #1144, #587, #951 ) ;
#635 = CARTESIAN_POINT ( 'NONE',  ( 0.04000000000000000083, 0.000000000000000000, 0.000000000000000000 ) ) ;
#636 = LINE ( 'NONE', #397, #1019 ) ;
#637 = FACE_OUTER_BOUND ( 'NONE', #1109, .T. ) ;
#638 = CARTESIAN_POINT ( 'NONE',  ( 0.03550000000000000377, 0.005000000000000000104, 0.01299999999999999940 ) ) ;
#639 = CYLINDRICAL_SURFACE ( 'NONE', #970, 0.01125000000000000132 ) ;
#640 = CIRCLE ( 'NONE', #94, 0.003000000000000000062 ) ;
#641 = ORIENTED_EDGE ( 'NONE', *, *, #340, .T. ) ;
#642 = LINE ( 'NONE', #1009, #347 ) ;
#643 = CYLINDRICAL_SURFACE ( 'NONE', #364, 0.003000000000000002665 ) ;
#644 = DIRECTION ( 'NONE',  ( -1.000000000000000000, 0.000000000000000000, 0.000000000000000000 ) ) ;
#645 = AXIS2_PLACEMENT_3D ( 'NONE', #25, #305, #923 ) ;
#646 = EDGE_LOOP ( 'NONE', ( #191, #1083, #224, #1094 ) ) ;
#647 = CARTESIAN_POINT ( 'NONE',  ( 0.01029045599745482577, 0.09639999999999999958, 0.000000000000000000 ) ) ;
#648 = LINE ( 'NONE', #558, #188 ) ;
#649 = CARTESIAN_POINT ( 'NONE',  ( 0.000000000000000000, 0.000000000000000000, 0.000000000000000000 ) ) ;
#650 = VERTEX_POINT ( 'NONE', #189 ) ;
#651 = CARTESIAN_POINT ( 'NONE',  ( 0.02000000000000000042, 0.03150000000000000022, 0.009000000000000034014 ) ) ;
#652 = CIRCLE ( 'NONE', #482, 0.004499999999999999660 ) ;
#653 = FACE_BOUND ( 'NONE', #296, .T. ) ;
#654 = DIRECTION ( 'NONE',  ( 0.000000000000000000, 0.000000000000000000, -1.000000000000000000 ) ) ;
#655 = VERTEX_POINT ( 'NONE', #783 ) ;
#656 = FACE_BOUND ( 'NONE', #568, .T. ) ;
#657 = ORIENTED_EDGE ( 'NONE', *, *, #871, .F. ) ;
#658 = VECTOR ( 'NONE', #346, 1.000000000000000000 ) ;
#659 = CYLINDRICAL_SURFACE ( 'NONE', #688, 0.004499999999999999660 ) ;
#660 = CARTESIAN_POINT ( 'NONE',  ( 0.01625000000000003872, 0.03150000000000000022, 0.01000000000000000021 ) ) ;
#661 = CARTESIAN_POINT ( 'NONE',  ( 0.008290455997454815318, 0.09639999999999999958, 0.01000000000000000021 ) ) ;
#662 = ORIENTED_EDGE ( 'NONE', *, *, #48, .F. ) ;
#663 = FACE_OUTER_BOUND ( 'NONE', #584, .T. ) ;
#664 = ORIENTED_EDGE ( 'NONE', *, *, #242, .T. ) ;
#665 = EDGE_CURVE ( 'NONE', #655, #383, #1081, .T. ) ;
#666 = CARTESIAN_POINT ( 'NONE',  ( 0.01029045599745482577, 0.09639999999999999958, -0.006000000000000000125 ) ) ;
#667 = PRODUCT_DEFINITION_FORMATION_WITH_SPECIFIED_SOURCE ( 'ANY', '', #46, .NOT_KNOWN. ) ;
#668 = EDGE_CURVE ( 'NONE', #903, #549, #678, .T. ) ;
#669 =( NAMED_UNIT ( * ) SI_UNIT ( $, .STERADIAN. ) SOLID_ANGLE_UNIT ( ) );
#670 = ORIENTED_EDGE ( 'NONE', *, *, #280, .F. ) ;
#671 = DIRECTION ( 'NONE',  ( 0.000000000000000000, 1.000000000000000000, 0.000000000000000000 ) ) ;
#672 = ORIENTED_EDGE ( 'NONE', *, *, #665, .T. ) ;
#673 = CARTESIAN_POINT ( 'NONE',  ( 0.000000000000000000, 0.01000000000000000021, 0.003000000000000000062 ) ) ;
#674 = ORIENTED_EDGE ( 'NONE', *, *, #897, .F. ) ;
#675 = LINE ( 'NONE', #756, #725 ) ;
#676 = ORIENTED_EDGE ( 'NONE', *, *, #873, .F. ) ;
#677 = DIRECTION ( 'NONE',  ( 0.000000000000000000, 0.000000000000000000, -1.000000000000000000 ) ) ;
#678 = CIRCLE ( 'NONE', #789, 0.003749999999999961697 ) ;
#679 = PERSON_AND_ORGANIZATION ( #413, #1075 ) ;
#680 = DIRECTION ( 'NONE',  ( 0.000000000000000000, 1.000000000000000000, 0.000000000000000000 ) ) ;
#681 = DIRECTION ( 'NONE',  ( -1.000000000000000000, 0.000000000000000000, 0.000000000000000000 ) ) ;
#682 = DESIGN_CONTEXT ( 'detailed design', #1052, 'design' ) ;
#683 = VERTEX_POINT ( 'NONE', #272 ) ;
#684 = LINE ( 'NONE', #159, #837 ) ;
#685 = APPROVAL_PERSON_ORGANIZATION ( #800, #979, #980 ) ;
#686 = CARTESIAN_POINT ( 'NONE',  ( 0.02000000000000000042, 0.03150000000000000022, 0.01000000000000000021 ) ) ;
#687 = DIRECTION ( 'NONE',  ( 0.000000000000000000, 0.000000000000000000, -1.000000000000000000 ) ) ;
#688 = AXIS2_PLACEMENT_3D ( 'NONE', #569, #844, #396 ) ;
#689 = CC_DESIGN_PERSON_AND_ORGANIZATION_ASSIGNMENT ( #488, #501, ( #1139 ) ) ;
#690 = ORIENTED_EDGE ( 'NONE', *, *, #169, .T. ) ;
#691 = DIRECTION ( 'NONE',  ( 0.000000000000000000, 0.000000000000000000, 1.000000000000000000 ) ) ;
#692 = DATE_AND_TIME ( #496, #805 ) ;
#693 = FACE_OUTER_BOUND ( 'NONE', #646, .T. ) ;
#694 = VECTOR ( 'NONE', #486, 1.000000000000000000 ) ;
#695 = FACE_BOUND ( 'NONE', #799, .T. ) ;
#696 = CIRCLE ( 'NONE', #116, 0.01099999999999999589 ) ;
#697 = ORIENTED_EDGE ( 'NONE', *, *, #160, .T. ) ;
#698 = ADVANCED_FACE ( 'NONE', ( #447 ), #258, .F. ) ;
#699 = CARTESIAN_POINT ( 'NONE',  ( 0.03129045599745482187, 0.09639999999999999958, 0.008999999999999987177 ) ) ;
#700 = AXIS2_PLACEMENT_3D ( 'NONE', #368, #1015, #390 ) ;
#701 = DIRECTION ( 'NONE',  ( 0.000000000000000000, -0.000000000000000000, -1.000000000000000000 ) ) ;
#702 = CARTESIAN_POINT ( 'NONE',  ( 0.008749999999999999098, 0.03150000000000000022, 0.006000000000000000125 ) ) ;
#703 = ORIENTED_EDGE ( 'NONE', *, *, #369, .T. ) ;
#704 = FACE_OUTER_BOUND ( 'NONE', #540, .T. ) ;
#705 = ORIENTED_EDGE ( 'NONE', *, *, #615, .F. ) ;
#706 = EDGE_CURVE ( 'NONE', #1020, #137, #640, .T. ) ;
#707 = EDGE_CURVE ( 'NONE', #627, #748, #891, .T. ) ;
#708 = DIRECTION ( 'NONE',  ( -1.000000000000000000, 0.000000000000000000, 0.000000000000000000 ) ) ;
#709 = VERTEX_POINT ( 'NONE', #524 ) ;
#710 = CARTESIAN_POINT ( 'NONE',  ( 0.000000000000000000, 0.01000000000000000021, 0.003000000000000000062 ) ) ;
#711 = ORIENTED_EDGE ( 'NONE', *, *, #261, .F. ) ;
#712 = SECURITY_CLASSIFICATION_LEVEL ( 'unclassified' ) ;
#713 = CARTESIAN_POINT ( 'NONE',  ( 0.03250000000000000111, 0.005000000000000000104, 0.01299999999999999940 ) ) ;
#714 = AXIS2_PLACEMENT_3D ( 'NONE', #826, #129, #135 ) ;
#715 = VERTEX_POINT ( 'NONE', #451 ) ;
#716 = AXIS2_PLACEMENT_3D ( 'NONE', #605, #331, #170 ) ;
#717 = DIRECTION ( 'NONE',  ( 0.000000000000000000, 0.000000000000000000, 1.000000000000000000 ) ) ;
#718 = ADVANCED_FACE ( 'NONE', ( #352 ), #195, .F. ) ;
#719 = AXIS2_PLACEMENT_3D ( 'NONE', #808, #995, #457 ) ;
#720 = ORIENTED_EDGE ( 'NONE', *, *, #309, .F. ) ;
#721 = DIRECTION ( 'NONE',  ( -1.000000000000000000, 0.000000000000000000, -0.000000000000000000 ) ) ;
#722 = EDGE_CURVE ( 'NONE', #655, #614, #361, .T. ) ;
#723 = EDGE_LOOP ( 'NONE', ( #321, #874, #881, #633 ) ) ;
#724 = FACE_OUTER_BOUND ( 'NONE', #931, .T. ) ;
#725 = VECTOR ( 'NONE', #339, 1.000000000000000000 ) ;
#726 = ORIENTED_EDGE ( 'NONE', *, *, #418, .F. ) ;
#727 = ADVANCED_FACE ( 'NONE', ( #1055 ), #17, .F. ) ;
#728 = AXIS2_PLACEMENT_3D ( 'NONE', #139, #35, #763 ) ;
#729 = CARTESIAN_POINT ( 'NONE',  ( 0.02800000000000000058, 0.005000000000000000104, 0.01299999999999999940 ) ) ;
#730 = DIRECTION ( 'NONE',  ( 0.000000000000000000, 0.000000000000000000, -1.000000000000000000 ) ) ;
#731 = VECTOR ( 'NONE', #105, 1.000000000000000000 ) ;
#732 = ORIENTED_EDGE ( 'NONE', *, *, #1115, .T. ) ;
#733 = DIRECTION ( 'NONE',  ( 0.000000000000000000, 0.000000000000000000, -1.000000000000000000 ) ) ;
#734 = CARTESIAN_POINT ( 'NONE',  ( 0.03250000000000000111, 0.005000000000000000104, 0.01299999999999999940 ) ) ;
#735 = ADVANCED_FACE ( 'NONE', ( #90 ), #165, .F. ) ;
#736 = ORIENTED_EDGE ( 'NONE', *, *, #204, .F. ) ;
#737 = DIRECTION ( 'NONE',  ( -0.000000000000000000, -0.000000000000000000, -1.000000000000000000 ) ) ;
#738 = CC_DESIGN_SECURITY_CLASSIFICATION ( #443, ( #667 ) ) ;
#739 = ORIENTED_EDGE ( 'NONE', *, *, #577, .T. ) ;
#740 = CARTESIAN_POINT ( 'NONE',  ( 0.03029045599745482792, 0.09639999999999999958, 0.000000000000000000 ) ) ;
#741 = CARTESIAN_POINT ( 'NONE',  ( 0.000000000000000000, 0.000000000000000000, 0.01969999999999999876 ) ) ;
#742 = FACE_OUTER_BOUND ( 'NONE', #110, .T. ) ;
#743 = ORIENTED_EDGE ( 'NONE', *, *, #665, .F. ) ;
#744 = ORIENTED_EDGE ( 'NONE', *, *, #998, .F. ) ;
#745 = DIRECTION ( 'NONE',  ( -1.000000000000000000, 0.000000000000000000, 0.000000000000000000 ) ) ;
#746 = CARTESIAN_POINT ( 'NONE',  ( 0.04000000000000000083, 0.1100000000000000006, 0.01000000000000000021 ) ) ;
#747 = FACE_OUTER_BOUND ( 'NONE', #215, .T. ) ;
#748 = VERTEX_POINT ( 'NONE', #1072 ) ;
#749 = DIRECTION ( 'NONE',  ( 0.000000000000000000, -1.000000000000000000, 0.000000000000000000 ) ) ;
#750 = ADVANCED_FACE ( 'NONE', ( #365, #984 ), #18, .T. ) ;
#751 = EDGE_CURVE ( 'NONE', #21, #243, #630, .T. ) ;
#752 = VERTEX_POINT ( 'NONE', #100 ) ;
#753 = CARTESIAN_POINT ( 'NONE',  ( 0.02029045599745482598, 0.09639999999999999958, 0.000000000000000000 ) ) ;
#754 = CARTESIAN_POINT ( 'NONE',  ( 0.04000000000000000083, 0.05299999999999999850, 0.003000000000000000062 ) ) ;
#755 = ORIENTED_EDGE ( 'NONE', *, *, #668, .F. ) ;
#756 = CARTESIAN_POINT ( 'NONE',  ( 0.000000000000000000, 0.1100000000000000006, 0.000000000000000000 ) ) ;
#757 = ORIENTED_EDGE ( 'NONE', *, *, #507, .T. ) ;
#758 = CARTESIAN_POINT ( 'NONE',  ( 0.009290455997454831819, 0.09639999999999999958, 0.002000000000000000042 ) ) ;
#759 =( LENGTH_UNIT ( ) NAMED_UNIT ( * ) SI_UNIT ( $, .METRE. ) );
#760 = ORIENTED_EDGE ( 'NONE', *, *, #356, .T. ) ;
#761 = DIRECTION ( 'NONE',  ( -1.000000000000000000, 0.000000000000000000, 0.000000000000000000 ) ) ;
#762 = ORIENTED_EDGE ( 'NONE', *, *, #13, .T. ) ;
#763 = DIRECTION ( 'NONE',  ( -1.000000000000000000, 0.000000000000000000, 0.000000000000000000 ) ) ;
#764 = EDGE_CURVE ( 'NONE', #941, #448, #977, .T. ) ;
#765 = PERSON_AND_ORGANIZATION ( #413, #1075 ) ;
#766 = VECTOR ( 'NONE', #1004, 1.000000000000000000 ) ;
#767 = DIRECTION ( 'NONE',  ( 1.000000000000000000, 0.000000000000000000, 0.000000000000000000 ) ) ;
#768 = CARTESIAN_POINT ( 'NONE',  ( 0.03250000000000000111, 0.005000000000000000104, 0.01299999999999999940 ) ) ;
#769 = VERTEX_POINT ( 'NONE', #186 ) ;
#770 = LINE ( 'NONE', #1128, #579 ) ;
#771 = AXIS2_PLACEMENT_3D ( 'NONE', #304, #1104, #453 ) ;
#772 = LINE ( 'NONE', #234, #1145 ) ;
#773 = LINE ( 'NONE', #952, #359 ) ;
#774 = ORIENTED_EDGE ( 'NONE', *, *, #134, .F. ) ;
#775 = CARTESIAN_POINT ( 'NONE',  ( 0.04000000000000000083, 0.01000000000000000021, 0.01000000000000000021 ) ) ;
#776 = APPLICATION_PROTOCOL_DEFINITION ( 'international standard', 'config_control_design', 1994, #1052 ) ;
#777 = DIRECTION ( 'NONE',  ( 0.000000000000000000, 0.000000000000000000, -1.000000000000000000 ) ) ;
#778 = CARTESIAN_POINT ( 'NONE',  ( 0.000000000000000000, 0.01000000000000000021, 0.01969999999999999876 ) ) ;
#779 = ORIENTED_EDGE ( 'NONE', *, *, #848, .F. ) ;
#780 = LINE ( 'NONE', #962, #528 ) ;
#781 = CARTESIAN_POINT ( 'NONE',  ( 0.000000000000000000, 0.000000000000000000, 0.000000000000000000 ) ) ;
#782 = CARTESIAN_POINT ( 'NONE',  ( 0.03700000000000000511, 0.005000000000000000971, 0.01299999999999999940 ) ) ;
#783 = CARTESIAN_POINT ( 'NONE',  ( 0.008749999999999999098, 0.03150000000000000022, 0.006000000000000000125 ) ) ;
#784 = AXIS2_PLACEMENT_3D ( 'NONE', #490, #1043, #241 ) ;
#785 = ADVANCED_FACE ( 'NONE', ( #278 ), #543, .F. ) ;
#786 = ORIENTED_EDGE ( 'NONE', *, *, #814, .T. ) ;
#787 = EDGE_CURVE ( 'NONE', #493, #354, #1, .T. ) ;
#788 = CARTESIAN_POINT ( 'NONE',  ( 0.03700000000000000511, 0.005000000000000000971, 0.000000000000000000 ) ) ;
#789 = AXIS2_PLACEMENT_3D ( 'NONE', #876, #1146, #1066 ) ;
#790 = DIRECTION ( 'NONE',  ( -1.000000000000000000, 0.000000000000000000, 0.000000000000000000 ) ) ;
#791 = ORIENTED_EDGE ( 'NONE', *, *, #55, .T. ) ;
#792 = DIRECTION ( 'NONE',  ( -0.000000000000000000, -0.000000000000000000, -1.000000000000000000 ) ) ;
#793 = AXIS2_PLACEMENT_3D ( 'NONE', #1021, #576, #967 ) ;
#794 = CC_DESIGN_DATE_AND_TIME_ASSIGNMENT ( #1059, #1143, ( #443 ) ) ;
#795 = CARTESIAN_POINT ( 'NONE',  ( 0.02029045599745482598, 0.09639999999999999958, 0.008999999999999987177 ) ) ;
#796 = EDGE_LOOP ( 'NONE', ( #598, #697, #552, #536 ) ) ;
#797 = DIRECTION ( 'NONE',  ( -0.000000000000000000, -0.000000000000000000, -1.000000000000000000 ) ) ;
#798 = CIRCLE ( 'NONE', #341, 0.01000000000000000194 ) ;
#799 = EDGE_LOOP ( 'NONE', ( #464, #674 ) ) ;
#800 = PERSON_AND_ORGANIZATION ( #413, #1075 ) ;
#801 = CARTESIAN_POINT ( 'NONE',  ( 0.02000000000000000042, 0.03150000000000000022, 0.006000000000000000125 ) ) ;
#802 = AXIS2_PLACEMENT_3D ( 'NONE', #893, #182, #431 ) ;
#803 = ORIENTED_EDGE ( 'NONE', *, *, #897, .T. ) ;
#804 = DIRECTION ( 'NONE',  ( -1.000000000000000000, 0.000000000000000000, -0.000000000000000000 ) ) ;
#805 = LOCAL_TIME ( 19, 4, 35.00000000000000000, #337 ) ;
#806 = ADVANCED_FACE ( 'NONE', ( #529, #1061, #969 ), #206, .F. ) ;
#807 = ORIENTED_EDGE ( 'NONE', *, *, #958, .T. ) ;
#808 = CARTESIAN_POINT ( 'NONE',  ( 0.007499999999999999722, 0.005000000000000000104, 0.000000000000000000 ) ) ;
#809 = PLANE ( 'NONE',  #495 ) ;
#810 = CARTESIAN_POINT ( 'NONE',  ( 0.02000000000000000042, 0.03150000000000000022, 0.003000000000000000062 ) ) ;
#811 = EDGE_CURVE ( 'NONE', #913, #1000, #546, .T. ) ;
#812 = AXIS2_PLACEMENT_3D ( 'NONE', #1120, #671, #512 ) ;
#813 = ORIENTED_EDGE ( 'NONE', *, *, #1073, .F. ) ;
#814 = EDGE_CURVE ( 'NONE', #101, #10, #53, .T. ) ;
#815 = VECTOR ( 'NONE', #859, 1.000000000000000000 ) ;
#816 = DIRECTION ( 'NONE',  ( -1.000000000000000000, 0.000000000000000000, 0.000000000000000000 ) ) ;
#817 = CARTESIAN_POINT ( 'NONE',  ( 0.01725000000000000144, 0.03150000000000000022, 0.01399999999999998815 ) ) ;
#818 = ORIENTED_EDGE ( 'NONE', *, *, #343, .F. ) ;
#819 = DIRECTION ( 'NONE',  ( 0.000000000000000000, 0.000000000000000000, -1.000000000000000000 ) ) ;
#820 = VECTOR ( 'NONE', #557, 1.000000000000000000 ) ;
#821 = EDGE_LOOP ( 'NONE', ( #1033, #531, #757, #561 ) ) ;
#822 = DIRECTION ( 'NONE',  ( -1.000000000000000000, 0.000000000000000000, 0.000000000000000000 ) ) ;
#823 = DIRECTION ( 'NONE',  ( -0.000000000000000000, -1.000000000000000000, -0.000000000000000000 ) ) ;
#824 = LINE ( 'NONE', #1016, #150 ) ;
#825 = ORIENTED_EDGE ( 'NONE', *, *, #55, .F. ) ;
#826 = CARTESIAN_POINT ( 'NONE',  ( 0.03250000000000000111, 0.005000000000000000104, 0.01299999999999999940 ) ) ;
#827 = AXIS2_PLACEMENT_3D ( 'NONE', #51, #654, #202 ) ;
#828 = ORIENTED_EDGE ( 'NONE', *, *, #751, .T. ) ;
#829 = DIRECTION ( 'NONE',  ( -1.000000000000000000, 0.000000000000000000, 0.000000000000000000 ) ) ;
#830 = AXIS2_PLACEMENT_3D ( 'NONE', #753, #677, #829 ) ;
#831 = DIRECTION ( 'NONE',  ( 0.7071067811865463515, 0.000000000000000000, 0.7071067811865487940 ) ) ;
#832 = EDGE_CURVE ( 'NONE', #101, #387, #572, .T. ) ;
#833 = DIRECTION ( 'NONE',  ( 0.000000000000000000, 1.000000000000000000, -0.000000000000000000 ) ) ;
#834 = CARTESIAN_POINT ( 'NONE',  ( 0.009290455997454831819, 0.09639999999999999958, 0.002000000000000000042 ) ) ;
#835 = VERTEX_POINT ( 'NONE', #565 ) ;
#836 = CIRCLE ( 'NONE', #481, 0.01200000000000001066 ) ;
#837 = VECTOR ( 'NONE', #506, 1.000000000000000000 ) ;
#838 = LINE ( 'NONE', #50, #609 ) ;
#839 = EDGE_LOOP ( 'NONE', ( #31, #77, #855, #703 ) ) ;
#840 = DIRECTION ( 'NONE',  ( -1.000000000000000000, 0.000000000000000000, -0.000000000000000000 ) ) ;
#841 = PRODUCT_RELATED_PRODUCT_CATEGORY ( 'detail', '', ( #46 ) ) ;
#842 = CIRCLE ( 'NONE', #700, 0.003000000000000000062 ) ;
#843 = VERTEX_POINT ( 'NONE', #917 ) ;
#844 = DIRECTION ( 'NONE',  ( -0.000000000000000000, -0.000000000000000000, -1.000000000000000000 ) ) ;
#845 = CALENDAR_DATE ( 2025, 27, 3 ) ;
#846 = ORIENTED_EDGE ( 'NONE', *, *, #334, .F. ) ;
#847 = PLANE ( 'NONE',  #812 ) ;
#848 = EDGE_CURVE ( 'NONE', #252, #835, #1001, .T. ) ;
#849 = ORIENTED_EDGE ( 'NONE', *, *, #218, .T. ) ;
#850 = VECTOR ( 'NONE', #991, 1.000000000000000000 ) ;
#851 = FACE_OUTER_BOUND ( 'NONE', #1132, .T. ) ;
#852 = APPROVAL_STATUS ( 'not_yet_approved' ) ;
#853 = LINE ( 'NONE', #325, #138 ) ;
#854 = CYLINDRICAL_SURFACE ( 'NONE', #784, 0.004499999999999999660 ) ;
#855 = ORIENTED_EDGE ( 'NONE', *, *, #1130, .T. ) ;
#856 = DIRECTION ( 'NONE',  ( -0.000000000000000000, -0.000000000000000000, -1.000000000000000000 ) ) ;
#857 = APPROVAL_DATE_TIME ( #58, #476 ) ;
#858 = AXIS2_PLACEMENT_3D ( 'NONE', #411, #588, #1131 ) ;
#859 = DIRECTION ( 'NONE',  ( 0.000000000000000000, 1.000000000000000000, 0.000000000000000000 ) ) ;
#860 = CARTESIAN_POINT ( 'NONE',  ( 0.000000000000000000, 0.000000000000000000, 0.01000000000000000021 ) ) ;
#861 = VERTEX_POINT ( 'NONE', #647 ) ;
#862 = DIRECTION ( 'NONE',  ( -0.000000000000000000, -1.000000000000000000, -0.000000000000000000 ) ) ;
#863 = CIRCLE ( 'NONE', #827, 0.003000000000000002665 ) ;
#864 = CALENDAR_DATE ( 2025, 27, 3 ) ;
#865 = FACE_OUTER_BOUND ( 'NONE', #622, .T. ) ;
#866 = PLANE ( 'NONE',  #632 ) ;
#867 = ORIENTED_EDGE ( 'NONE', *, *, #956, .F. ) ;
#868 = LINE ( 'NONE', #527, #136 ) ;
#869 = LOCAL_TIME ( 19, 4, 35.00000000000000000, #69 ) ;
#870 = LINE ( 'NONE', #600, #1008 ) ;
#871 = EDGE_CURVE ( 'NONE', #137, #1020, #842, .T. ) ;
#872 = CARTESIAN_POINT ( 'NONE',  ( 0.000000000000000000, 0.000000000000000000, 0.000000000000000000 ) ) ;
#873 = EDGE_CURVE ( 'NONE', #406, #370, #1096, .T. ) ;
#874 = ORIENTED_EDGE ( 'NONE', *, *, #1030, .F. ) ;
#875 = CARTESIAN_POINT ( 'NONE',  ( 0.02000000000000000042, 0.03150000000000000022, 0.01399999999999998815 ) ) ;
#876 = CARTESIAN_POINT ( 'NONE',  ( 0.02000000000000000042, 0.03150000000000000022, 0.01000000000000000021 ) ) ;
#877 = CIRCLE ( 'NONE', #972, 0.01200000000000001066 ) ;
#878 = CC_DESIGN_PERSON_AND_ORGANIZATION_ASSIGNMENT ( #1065, #975, ( #443 ) ) ;
#879 = ORIENTED_EDGE ( 'NONE', *, *, #848, .T. ) ;
#880 = CARTESIAN_POINT ( 'NONE',  ( 0.000000000000000000, 0.000000000000000000, 0.01000000000000000021 ) ) ;
#881 = ORIENTED_EDGE ( 'NONE', *, *, #268, .T. ) ;
#882 = DIRECTION ( 'NONE',  ( 0.000000000000000000, 0.000000000000000000, -1.000000000000000000 ) ) ;
#883 = VECTOR ( 'NONE', #74, 1.000000000000000000 ) ;
#884 = ORIENTED_EDGE ( 'NONE', *, *, #7, .T. ) ;
#885 = CIRCLE ( 'NONE', #353, 0.003000000000000000062 ) ;
#886 = DIRECTION ( 'NONE',  ( -0.000000000000000000, -0.000000000000000000, 1.000000000000000000 ) ) ;
#887 = ORIENTED_EDGE ( 'NONE', *, *, #356, .F. ) ;
#888 = AXIS2_PLACEMENT_3D ( 'NONE', #1034, #57, #922 ) ;
#889 = ORIENTED_EDGE ( 'NONE', *, *, #1077, .T. ) ;
#890 = EDGE_CURVE ( 'NONE', #243, #493, #642, .T. ) ;
#891 = LINE ( 'NONE', #538, #658 ) ;
#892 = ORIENTED_EDGE ( 'NONE', *, *, #268, .F. ) ;
#893 = CARTESIAN_POINT ( 'NONE',  ( 0.03250000000000000111, 0.005000000000000000104, 0.02099999999999999090 ) ) ;
#894 = ORIENTED_EDGE ( 'NONE', *, *, #174, .F. ) ;
#895 = DIRECTION ( 'NONE',  ( 0.000000000000000000, 0.000000000000000000, -1.000000000000000000 ) ) ;
#896 = CARTESIAN_POINT ( 'NONE',  ( 0.04000000000000000083, 0.000000000000000000, 0.01969999999999999876 ) ) ;
#897 = EDGE_CURVE ( 'NONE', #1106, #16, #270, .T. ) ;
#898 = LINE ( 'NONE', #961, #530 ) ;
#899 = EDGE_CURVE ( 'NONE', #941, #607, #385, .T. ) ;
#900 = ORIENTED_EDGE ( 'NONE', *, *, #218, .F. ) ;
#901 = DIRECTION ( 'NONE',  ( 1.000000000000000000, 0.000000000000000000, 0.000000000000000000 ) ) ;
#902 = DIRECTION ( 'NONE',  ( -0.000000000000000000, -0.000000000000000000, -1.000000000000000000 ) ) ;
#903 = VERTEX_POINT ( 'NONE', #660 ) ;
#904 = LINE ( 'NONE', #32, #1026 ) ;
#905 = AXIS2_PLACEMENT_3D ( 'NONE', #307, #41, #644 ) ;
#906 = ORIENTED_EDGE ( 'NONE', *, *, #787, .F. ) ;
#907 = VECTOR ( 'NONE', #1137, 1.000000000000000000 ) ;
#908 = PLANE ( 'NONE',  #912 ) ;
#909 = FACE_OUTER_BOUND ( 'NONE', #392, .T. ) ;
#910 = ORIENTED_EDGE ( 'NONE', *, *, #99, .F. ) ;
#911 = CARTESIAN_POINT ( 'NONE',  ( 0.004499999999999999660, 0.005000000000000000104, 0.01969999999999999876 ) ) ;
#912 = AXIS2_PLACEMENT_3D ( 'NONE', #126, #462, #213 ) ;
#913 = VERTEX_POINT ( 'NONE', #373 ) ;
#914 = ADVANCED_FACE ( 'NONE', ( #201, #724 ), #1080, .T. ) ;
#915 = PRODUCT_DEFINITION_SHAPE ( 'NONE', 'NONE',  #1139 ) ;
#916 = DIRECTION ( 'NONE',  ( 1.000000000000000000, -0.000000000000000000, -0.000000000000000000 ) ) ;
#917 = CARTESIAN_POINT ( 'NONE',  ( 0.04000000000000000083, 0.000000000000000000, 0.000000000000000000 ) ) ;
#918 = CARTESIAN_POINT ( 'NONE',  ( 0.007499999999999999722, 0.005000000000000000104, 0.01969999999999999876 ) ) ;
#919 = CARTESIAN_POINT ( 'NONE',  ( 0.02000000000000000042, 0.03150000000000000022, 0.006000000000000000125 ) ) ;
#920 = VECTOR ( 'NONE', #429, 1.000000000000000000 ) ;
#921 = ORIENTED_EDGE ( 'NONE', *, *, #454, .T. ) ;
#922 = DIRECTION ( 'NONE',  ( -1.000000000000000000, 0.000000000000000000, 0.000000000000000000 ) ) ;
#923 = DIRECTION ( 'NONE',  ( -1.000000000000000000, 0.000000000000000000, 0.000000000000000000 ) ) ;
#924 = VERTEX_POINT ( 'NONE', #36 ) ;
#925 = CARTESIAN_POINT ( 'NONE',  ( 0.000000000000000000, 0.1100000000000000006, 0.01000000000000000021 ) ) ;
#926 = ORIENTED_EDGE ( 'NONE', *, *, #1060, .T. ) ;
#927 = VECTOR ( 'NONE', #613, 1.000000000000000000 ) ;
#928 = CARTESIAN_POINT ( 'NONE',  ( 0.007499999999999999722, 0.005000000000000000104, 0.01299999999999999940 ) ) ;
#929 = CIRCLE ( 'NONE', #437, 0.01000000000000000194 ) ;
#930 = APPROVAL_ROLE ( '' ) ;
#931 = EDGE_LOOP ( 'NONE', ( #786, #641 ) ) ;
#932 = ADVANCED_FACE ( 'NONE', ( #653, #550 ), #908, .F. ) ;
#933 = CARTESIAN_POINT ( 'NONE',  ( 0.02029045599745482598, 0.09639999999999999958, 0.002000000000000000042 ) ) ;
#934 = UNCERTAINTY_MEASURE_WITH_UNIT (LENGTH_MEASURE( 1.000000000000000082E-05 ), #759, 'distance_accuracy_value', 'NONE');
#935 = AXIS2_PLACEMENT_3D ( 'NONE', #801, #882, #97 ) ;
#936 = ORIENTED_EDGE ( 'NONE', *, *, #289, .T. ) ;
#937 = DIRECTION ( 'NONE',  ( 0.000000000000000000, 0.000000000000000000, -1.000000000000000000 ) ) ;
#938 = CARTESIAN_POINT ( 'NONE',  ( 0.04000000000000000083, 0.000000000000000000, 0.01969999999999999876 ) ) ;
#939 = CARTESIAN_POINT ( 'NONE',  ( 0.02000000000000000042, 0.03150000000000000022, 0.003000000000000000062 ) ) ;
#940 = EDGE_CURVE ( 'NONE', #627, #549, #221, .T. ) ;
#941 = VERTEX_POINT ( 'NONE', #1089 ) ;
#942 = CYLINDRICAL_SURFACE ( 'NONE', #158, 0.002749999999999998973 ) ;
#943 = DATE_AND_TIME ( #864, #78 ) ;
#944 = DIRECTION ( 'NONE',  ( 1.000000000000000000, 0.000000000000000000, 0.000000000000000000 ) ) ;
#945 = DIRECTION ( 'NONE',  ( 0.000000000000000000, -0.000000000000000000, -1.000000000000000000 ) ) ;
#946 = ORIENTED_EDGE ( 'NONE', *, *, #989, .F. ) ;
#947 = ADVANCED_FACE ( 'NONE', ( #282 ), #44, .F. ) ;
#948 = LINE ( 'NONE', #955, #478 ) ;
#949 = AXIS2_PLACEMENT_3D ( 'NONE', #428, #349, #244 ) ;
#950 = MECHANICAL_CONTEXT ( 'NONE', #164, 'mechanical' ) ;
#951 = DIRECTION ( 'NONE',  ( -1.000000000000000000, 0.000000000000000000, 0.000000000000000000 ) ) ;
#952 = CARTESIAN_POINT ( 'NONE',  ( 0.000000000000000000, 0.000000000000000000, 0.000000000000000000 ) ) ;
#953 = VECTOR ( 'NONE', #1003, 1.000000000000000000 ) ;
#954 = ORIENTED_EDGE ( 'NONE', *, *, #706, .T. ) ;
#955 = CARTESIAN_POINT ( 'NONE',  ( 0.000000000000000000, 0.1100000000000000006, 0.01000000000000000021 ) ) ;
#956 = EDGE_CURVE ( 'NONE', #843, #709, #29, .T. ) ;
#957 = DIRECTION ( 'NONE',  ( -1.000000000000000000, 0.000000000000000000, 0.000000000000000000 ) ) ;
#958 = EDGE_CURVE ( 'NONE', #16, #1106, #586, .T. ) ;
#959 = PLANE ( 'NONE',  #266 ) ;
#960 = ORIENTED_EDGE ( 'NONE', *, *, #275, .T. ) ;
#961 = CARTESIAN_POINT ( 'NONE',  ( 0.003000000000000000062, 0.005000000000000000104, 0.01299999999999999940 ) ) ;
#962 = CARTESIAN_POINT ( 'NONE',  ( 0.01625000000000003872, 0.03150000000000000022, 0.01000000000000000021 ) ) ;
#963 = VERTEX_POINT ( 'NONE', #1040 ) ;
#964 = CC_DESIGN_PERSON_AND_ORGANIZATION_ASSIGNMENT ( #245, #1023, ( #46 ) ) ;
#965 = DIRECTION ( 'NONE',  ( 0.000000000000000000, 0.000000000000000000, -1.000000000000000000 ) ) ;
#966 = ORIENTED_EDGE ( 'NONE', *, *, #832, .T. ) ;
#967 = DIRECTION ( 'NONE',  ( -1.000000000000000000, 0.000000000000000000, 0.000000000000000000 ) ) ;
#968 = ORIENTED_EDGE ( 'NONE', *, *, #28, .T. ) ;
#969 = FACE_OUTER_BOUND ( 'NONE', #299, .T. ) ;
#970 = AXIS2_PLACEMENT_3D ( 'NONE', #273, #626, #399 ) ;
#971 = EDGE_CURVE ( 'NONE', #354, #21, #508, .T. ) ;
#972 = AXIS2_PLACEMENT_3D ( 'NONE', #345, #162, #75 ) ;
#973 = ORIENTED_EDGE ( 'NONE', *, *, #132, .T. ) ;
#974 = ORIENTED_EDGE ( 'NONE', *, *, #722, .T. ) ;
#975 = PERSON_AND_ORGANIZATION_ROLE ( 'classification_officer' ) ;
#976 = AXIS2_PLACEMENT_3D ( 'NONE', #982, #717, #357 ) ;
#977 = LINE ( 'NONE', #175, #236 ) ;
#978 = ORIENTED_EDGE ( 'NONE', *, *, #369, .F. ) ;
#979 = APPROVAL ( #185, 'UNSPECIFIED' ) ;
#980 = APPROVAL_ROLE ( '' ) ;
#981 = AXIS2_PLACEMENT_3D ( 'NONE', #918, #45, #1002 ) ;
#982 = CARTESIAN_POINT ( 'NONE',  ( 0.02029045599745482598, 0.09639999999999999958, 0.008999999999999987177 ) ) ;
#983 = ORIENTED_EDGE ( 'NONE', *, *, #275, .F. ) ;
#984 = FACE_OUTER_BOUND ( 'NONE', #173, .T. ) ;
#985 = VECTOR ( 'NONE', #297, 1.000000000000000000 ) ;
#986 = AXIS2_PLACEMENT_3D ( 'NONE', #183, #9, #621 ) ;
#987 = CIRCLE ( 'NONE', #634, 0.004500000000000000527 ) ;
#988 = VERTEX_POINT ( 'NONE', #638 ) ;
#989 = EDGE_CURVE ( 'NONE', #263, #16, #898, .T. ) ;
#990 = DIRECTION ( 'NONE',  ( 0.000000000000000000, 1.000000000000000000, 0.000000000000000000 ) ) ;
#991 = DIRECTION ( 'NONE',  ( -0.000000000000000000, -0.000000000000000000, -1.000000000000000000 ) ) ;
#992 = ADVANCED_FACE ( 'NONE', ( #909 ), #643, .F. ) ;
#993 = VECTOR ( 'NONE', #24, 1.000000000000000000 ) ;
#994 = ORIENTED_EDGE ( 'NONE', *, *, #811, .F. ) ;
#995 = DIRECTION ( 'NONE',  ( 0.000000000000000000, 0.000000000000000000, -1.000000000000000000 ) ) ;
#996 = LINE ( 'NONE', #817, #850 ) ;
#997 = AXIS2_PLACEMENT_3D ( 'NONE', #754, #833, #1010 ) ;
#998 = EDGE_CURVE ( 'NONE', #769, #187, #863, .T. ) ;
#999 = CARTESIAN_POINT ( 'NONE',  ( 0.000000000000000000, 0.01000000000000000021, 0.01969999999999999876 ) ) ;
#1000 = VERTEX_POINT ( 'NONE', #661 ) ;
#1001 = LINE ( 'NONE', #729, #439 ) ;
#1002 = DIRECTION ( 'NONE',  ( -1.000000000000000000, 0.000000000000000000, 0.000000000000000000 ) ) ;
#1003 = DIRECTION ( 'NONE',  ( -0.000000000000000000, -1.000000000000000000, -0.000000000000000000 ) ) ;
#1004 = DIRECTION ( 'NONE',  ( 1.000000000000000000, 0.000000000000000000, 0.000000000000000000 ) ) ;
#1005 = AXIS2_PLACEMENT_3D ( 'NONE', #1018, #819, #840 ) ;
#1006 = ORIENTED_EDGE ( 'NONE', *, *, #1148, .T. ) ;
#1007 = LINE ( 'NONE', #666, #629 ) ;
#1008 = VECTOR ( 'NONE', #680, 1.000000000000000000 ) ;
#1009 = CARTESIAN_POINT ( 'NONE',  ( 0.04000000000000000083, 0.01000000000000000021, 0.003000000000000000062 ) ) ;
#1010 = DIRECTION ( 'NONE',  ( 0.000000000000000000, 0.000000000000000000, 1.000000000000000000 ) ) ;
#1011 = ORIENTED_EDGE ( 'NONE', *, *, #91, .F. ) ;
#1012 = VECTOR ( 'NONE', #797, 1.000000000000000000 ) ;
#1013 = ORIENTED_EDGE ( 'NONE', *, *, #989, .T. ) ;
#1014 = DIRECTION ( 'NONE',  ( -0.000000000000000000, -0.000000000000000000, 1.000000000000000000 ) ) ;
#1015 = DIRECTION ( 'NONE',  ( -0.000000000000000000, -0.000000000000000000, 1.000000000000000000 ) ) ;
#1016 = CARTESIAN_POINT ( 'NONE',  ( 0.000000000000000000, 0.01000000000000000021, 0.01969999999999999876 ) ) ;
#1017 = ORIENTED_EDGE ( 'NONE', *, *, #301, .F. ) ;
#1018 = CARTESIAN_POINT ( 'NONE',  ( 0.02000000000000000042, 0.03150000000000000022, 0.006000000000000000125 ) ) ;
#1019 = VECTOR ( 'NONE', #112, 1.000000000000000000 ) ;
#1020 = VERTEX_POINT ( 'NONE', #1086 ) ;
#1021 = CARTESIAN_POINT ( 'NONE',  ( 0.007499999999999999722, 0.005000000000000000104, 0.01299999999999999940 ) ) ;
#1022 = EDGE_CURVE ( 'NONE', #1024, #843, #648, .T. ) ;
#1023 = PERSON_AND_ORGANIZATION_ROLE ( 'design_owner' ) ;
#1024 = VERTEX_POINT ( 'NONE', #896 ) ;
#1025 = EDGE_LOOP ( 'NONE', ( #27, #1006, #657, #892 ) ) ;
#1026 = VECTOR ( 'NONE', #737, 1.000000000000000000 ) ;
#1027 = FACE_OUTER_BOUND ( 'NONE', #479, .T. ) ;
#1028 = ADVANCED_FACE ( 'NONE', ( #747 ), #276, .F. ) ;
#1029 = CARTESIAN_POINT ( 'NONE',  ( 0.03125000000000000000, 0.03150000000000000022, 0.003000000000000000062 ) ) ;
#1030 = EDGE_CURVE ( 'NONE', #461, #715, #885, .T. ) ;
#1031 = FACE_OUTER_BOUND ( 'NONE', #574, .T. ) ;
#1032 = AXIS2_PLACEMENT_3D ( 'NONE', #534, #886, #616 ) ;
#1033 = ORIENTED_EDGE ( 'NONE', *, *, #617, .F. ) ;
#1034 = CARTESIAN_POINT ( 'NONE',  ( 0.02029045599745482598, 0.09639999999999999958, 0.008999999999999987177 ) ) ;
#1035 = CARTESIAN_POINT ( 'NONE',  ( 0.02029045599745482598, 0.09639999999999999958, -0.006000000000000000125 ) ) ;
#1036 = DIRECTION ( 'NONE',  ( -0.000000000000000000, -0.000000000000000000, 1.000000000000000000 ) ) ;
#1037 = PLANE ( 'NONE',  #281 ) ;
#1038 = ORIENTED_EDGE ( 'NONE', *, *, #424, .T. ) ;
#1039 = DIRECTION ( 'NONE',  ( 1.000000000000000000, 0.000000000000000000, 0.000000000000000000 ) ) ;
#1040 = CARTESIAN_POINT ( 'NONE',  ( 0.03029045599745482792, 0.09639999999999999958, 0.002000000000000000042 ) ) ;
#1041 = COORDINATED_UNIVERSAL_TIME_OFFSET ( 1, 0, .AHEAD. ) ;
#1042 = DIRECTION ( 'NONE',  ( -0.000000000000000000, -0.000000000000000000, -1.000000000000000000 ) ) ;
#1043 = DIRECTION ( 'NONE',  ( -0.000000000000000000, -0.000000000000000000, -1.000000000000000000 ) ) ;
#1044 = EDGE_CURVE ( 'NONE', #618, #145, #824, .T. ) ;
#1045 = VERTEX_POINT ( 'NONE', #222 ) ;
#1046 = DIRECTION ( 'NONE',  ( 0.7071067811865487940, 0.000000000000000000, 0.7071067811865463515 ) ) ;
#1047 = APPLICATION_PROTOCOL_DEFINITION ( 'international standard', 'config_control_design', 1994, #164 ) ;
#1048 = LINE ( 'NONE', #250, #89 ) ;
#1049 = CARTESIAN_POINT ( 'NONE',  ( 0.02274999999999999939, 0.03150000000000000022, 0.009000000000000034014 ) ) ;
#1050 = ORIENTED_EDGE ( 'NONE', *, *, #899, .T. ) ;
#1051 = CARTESIAN_POINT ( 'NONE',  ( 0.000000000000000000, 0.000000000000000000, 0.01000000000000000021 ) ) ;
#1052 = APPLICATION_CONTEXT ( 'configuration controlled 3d designs of mechanical parts and assemblies' ) ;
#1053 = EDGE_CURVE ( 'NONE', #370, #145, #636, .T. ) ;
#1054 = DIRECTION ( 'NONE',  ( 0.000000000000000000, 0.000000000000000000, -1.000000000000000000 ) ) ;
#1055 = FACE_OUTER_BOUND ( 'NONE', #106, .T. ) ;
#1056 = CIRCLE ( 'NONE', #793, 0.004499999999999999660 ) ;
#1057 = ORIENTED_EDGE ( 'NONE', *, *, #940, .T. ) ;
#1058 = CARTESIAN_POINT ( 'NONE',  ( 0.03129045599745482187, 0.09639999999999999958, 0.008999999999999987177 ) ) ;
#1059 = DATE_AND_TIME ( #541, #592 ) ;
#1060 = EDGE_CURVE ( 'NONE', #545, #113, #996, .T. ) ;
#1061 = FACE_BOUND ( 'NONE', #274, .T. ) ;
#1062 = ORIENTED_EDGE ( 'NONE', *, *, #1030, .T. ) ;
#1063 = CARTESIAN_POINT ( 'NONE',  ( 0.04000000000000000083, 0.05299999999999999850, 0.000000000000000000 ) ) ;
#1064 = ORIENTED_EDGE ( 'NONE', *, *, #1053, .T. ) ;
#1065 = PERSON_AND_ORGANIZATION ( #413, #1075 ) ;
#1066 = DIRECTION ( 'NONE',  ( -1.000000000000000000, 0.000000000000000000, 0.000000000000000000 ) ) ;
#1067 = AXIS2_PLACEMENT_3D ( 'NONE', #768, #1126, #163 ) ;
#1068 = CC_DESIGN_PERSON_AND_ORGANIZATION_ASSIGNMENT ( #63, #409, ( #667 ) ) ;
#1069 = VECTOR ( 'NONE', #1095, 1.000000000000000000 ) ;
#1070 = EDGE_LOOP ( 'NONE', ( #1121, #846, #440, #1050 ) ) ;
#1071 = VECTOR ( 'NONE', #790, 1.000000000000000000 ) ;
#1072 = CARTESIAN_POINT ( 'NONE',  ( 0.02274999999999999939, 0.03150000000000000022, 0.006000000000000000125 ) ) ;
#1073 = EDGE_CURVE ( 'NONE', #752, #1106, #198, .T. ) ;
#1074 = ORIENTED_EDGE ( 'NONE', *, *, #871, .T. ) ;
#1075 = ORGANIZATION ( 'UNSPECIFIED', 'UNSPECIFIED', '' ) ;
#1076 = DIRECTION ( 'NONE',  ( -1.000000000000000000, -0.000000000000000000, -0.000000000000000000 ) ) ;
#1077 = EDGE_CURVE ( 'NONE', #406, #618, #30, .T. ) ;
#1078 = ORIENTED_EDGE ( 'NONE', *, *, #1077, .F. ) ;
#1079 = ADVANCED_FACE ( 'NONE', ( #386 ), #573, .F. ) ;
#1080 = PLANE ( 'NONE',  #771 ) ;
#1081 = CIRCLE ( 'NONE', #935, 0.01125000000000000132 ) ;
#1082 = FACE_OUTER_BOUND ( 'NONE', #427, .T. ) ;
#1083 = ORIENTED_EDGE ( 'NONE', *, *, #255, .T. ) ;
#1084 = ADVANCED_FACE ( 'NONE', ( #742, #547 ), #809, .T. ) ;
#1085 = DIRECTION ( 'NONE',  ( -0.7071067811865487940, 8.659560562354948882E-17, 0.7071067811865463515 ) ) ;
#1086 = CARTESIAN_POINT ( 'NONE',  ( 0.01049999999999999892, 0.005000000000000000104, 0.01299999999999999940 ) ) ;
#1087 = AXIS2_PLACEMENT_3D ( 'NONE', #713, #11, #624 ) ;
#1088 = ORIENTED_EDGE ( 'NONE', *, *, #340, .F. ) ;
#1089 = CARTESIAN_POINT ( 'NONE',  ( 0.04000000000000000083, 0.1100000000000000006, 0.01000000000000000021 ) ) ;
#1090 = DIRECTION ( 'NONE',  ( -0.000000000000000000, -0.000000000000000000, -1.000000000000000000 ) ) ;
#1091 = LOCAL_TIME ( 19, 4, 35.00000000000000000, #102 ) ;
#1092 = DIRECTION ( 'NONE',  ( -1.000000000000000000, 0.000000000000000000, 0.000000000000000000 ) ) ;
#1093 = CARTESIAN_POINT ( 'NONE',  ( 0.01029045599745482577, 0.09639999999999999958, 0.002000000000000000042 ) ) ;
#1094 = ORIENTED_EDGE ( 'NONE', *, *, #1130, .F. ) ;
#1095 = DIRECTION ( 'NONE',  ( -0.000000000000000000, -0.000000000000000000, 1.000000000000000000 ) ) ;
#1096 = LINE ( 'NONE', #111, #820 ) ;
#1097 = DIRECTION ( 'NONE',  ( -1.000000000000000000, 0.000000000000000000, -0.000000000000000000 ) ) ;
#1098 = ORIENTED_EDGE ( 'NONE', *, *, #19, .F. ) ;
#1099 = CYLINDRICAL_SURFACE ( 'NONE', #905, 0.004500000000000000527 ) ;
#1100 = EDGE_CURVE ( 'NONE', #715, #461, #5, .T. ) ;
#1101 = ORIENTED_EDGE ( 'NONE', *, *, #940, .F. ) ;
#1102 = CYLINDRICAL_SURFACE ( 'NONE', #728, 0.01125000000000000132 ) ;
#1103 = CLOSED_SHELL ( 'NONE', ( #151, #597, #491, #718, #735, #83, #54, #785, #947, #400, #394, #571, #992, #544, #750, #286, #537, #371, #532, #628, #1079, #20, #932, #562, #914, #1117, #1028, #727, #455, #806, #1084, #698, #176, #220, #492, #432 ) ) ;
#1104 = DIRECTION ( 'NONE',  ( 0.000000000000000000, 0.000000000000000000, 1.000000000000000000 ) ) ;
#1105 = DIRECTION ( 'NONE',  ( -1.000000000000000000, 0.000000000000000000, 0.000000000000000000 ) ) ;
#1106 = VERTEX_POINT ( 'NONE', #391 ) ;
#1107 = DIRECTION ( 'NONE',  ( 0.000000000000000000, -0.000000000000000000, -1.000000000000000000 ) ) ;
#1108 = EDGE_CURVE ( 'NONE', #187, #769, #625, .T. ) ;
#1109 = EDGE_LOOP ( 'NONE', ( #1064, #96, #1078, #40 ) ) ;
#1110 = DIRECTION ( 'NONE',  ( -0.000000000000000000, -0.000000000000000000, -1.000000000000000000 ) ) ;
#1111 = DIRECTION ( 'NONE',  ( 0.000000000000000000, 0.000000000000000000, -1.000000000000000000 ) ) ;
#1112 = VERTEX_POINT ( 'NONE', #374 ) ;
#1113 = CARTESIAN_POINT ( 'NONE',  ( 0.02374999999999996211, 0.03150000000000000022, 0.01000000000000000021 ) ) ;
#1114 = EDGE_LOOP ( 'NONE', ( #291, #314 ) ) ;
#1115 = EDGE_CURVE ( 'NONE', #709, #683, #403, .T. ) ;
#1116 = FACE_BOUND ( 'NONE', #166, .T. ) ;
#1117 = ADVANCED_FACE ( 'NONE', ( #311 ), #316, .F. ) ;
#1118 = PERSON_AND_ORGANIZATION ( #413, #1075 ) ;
#1119 = ORIENTED_EDGE ( 'NONE', *, *, #424, .F. ) ;
#1120 = CARTESIAN_POINT ( 'NONE',  ( 0.000000000000000000, 0.000000000000000000, 0.01000000000000000021 ) ) ;
#1121 = ORIENTED_EDGE ( 'NONE', *, *, #554, .T. ) ;
#1122 = AXIS2_PLACEMENT_3D ( 'NONE', #319, #229, #945 ) ;
#1123 = LINE ( 'NONE', #758, #1069 ) ;
#1124 = DIRECTION ( 'NONE',  ( 1.000000000000000000, 0.000000000000000000, 0.000000000000000000 ) ) ;
#1125 = CARTESIAN_POINT ( 'NONE',  ( 0.03129045599745482187, 0.09639999999999999958, 0.002000000000000000042 ) ) ;
#1126 = DIRECTION ( 'NONE',  ( -0.000000000000000000, -0.000000000000000000, 1.000000000000000000 ) ) ;
#1127 = EDGE_LOOP ( 'NONE', ( #470, #231 ) ) ;
#1128 = CARTESIAN_POINT ( 'NONE',  ( 0.000000000000000000, 0.000000000000000000, 0.01000000000000000021 ) ) ;
#1129 = DIRECTION ( 'NONE',  ( 0.000000000000000000, -1.000000000000000000, 0.000000000000000000 ) ) ;
#1130 = EDGE_CURVE ( 'NONE', #228, #963, #417, .T. ) ;
#1131 = DIRECTION ( 'NONE',  ( -1.000000000000000000, 0.000000000000000000, 0.000000000000000000 ) ) ;
#1132 = EDGE_LOOP ( 'NONE', ( #813, #983, #1013, #807 ) ) ;
#1133 = VECTOR ( 'NONE', #566, 1.000000000000000000 ) ;
#1134 = CARTESIAN_POINT ( 'NONE',  ( 0.03125000000000000000, 0.03150000000000000022, 0.006000000000000000125 ) ) ;
#1135 = CARTESIAN_POINT ( 'NONE',  ( 0.000000000000000000, 0.01000000000000000021, 0.003000000000000000062 ) ) ;
#1136 = APPROVAL_DATE_TIME ( #943, #362 ) ;
#1137 = DIRECTION ( 'NONE',  ( -0.000000000000000000, -0.000000000000000000, -1.000000000000000000 ) ) ;
#1138 = FACE_OUTER_BOUND ( 'NONE', #284, .T. ) ;
#1139 = PRODUCT_DEFINITION ( 'UNKNOWN', '', #667, #682 ) ;
#1140 = ORIENTED_EDGE ( 'NONE', *, *, #108, .F. ) ;
#1141 = DIRECTION ( 'NONE',  ( 1.000000000000000000, 0.000000000000000000, 0.000000000000000000 ) ) ;
#1142 = CIRCLE ( 'NONE', #631, 0.002749999999999998973 ) ;
#1143 = DATE_TIME_ROLE ( 'classification_date' ) ;
#1144 = CARTESIAN_POINT ( 'NONE',  ( 0.03250000000000000111, 0.005000000000000000104, 0.01299999999999999940 ) ) ;
#1145 = VECTOR ( 'NONE', #1042, 1.000000000000000000 ) ;
#1146 = DIRECTION ( 'NONE',  ( 0.000000000000000000, 0.000000000000000000, -1.000000000000000000 ) ) ;
#1147 = ORIENTED_EDGE ( 'NONE', *, *, #1022, .T. ) ;
#1148 = EDGE_CURVE ( 'NONE', #715, #1020, #140, .T. ) ;
#1149 = AXIS2_PLACEMENT_3D ( 'NONE', #468, #196, #816 ) ;
#1150 = DIRECTION ( 'NONE',  ( 0.000000000000000000, 0.000000000000000000, -1.000000000000000000 ) ) ;
#1151 = ORIENTED_EDGE ( 'NONE', *, *, #38, .F. ) ;
ENDSEC;
END-ISO-10303-21;
